M48
;DRILL file {KiCad 4.0.6-e0-6349~53~ubuntu16.04.1} date Tue Mar 28 17:43:11 2017
;FORMAT={-:-/ absolute / metric / decimal}
FMAT,2
METRIC,TZ
T1C1.499
%
G90
G05
M71
T1
X42.357Y-67.311
X42.357Y-86.361
X42.357Y-105.411
X42.357Y-162.561
X42.357Y-181.611
X42.357Y-200.661
X42.357Y-219.711
X42.357Y-276.861
X42.357Y-295.911
X42.357Y-29.211
X42.357Y-48.261
X42.357Y-124.461
X42.357Y-143.511
X42.357Y-238.761
X42.357Y-257.811
X44.897Y-73.661
X44.897Y-92.711
X44.897Y-111.761
X44.897Y-168.911
X44.897Y-187.961
X44.897Y-207.011
X44.897Y-226.061
X44.897Y-283.211
X44.897Y-302.261
X44.897Y-35.561
X44.897Y-54.611
X44.897Y-130.811
X44.897Y-149.861
X44.897Y-245.111
X44.897Y-264.161
X53.787Y-78.106
X53.787Y-97.156
X53.787Y-192.406
X53.787Y-292.419
X53.787Y-35.244
X53.787Y-59.056
X53.787Y-116.206
X53.787Y-154.306
X53.787Y-173.356
X53.787Y-211.456
X53.787Y-230.506
X53.787Y-249.556
X53.787Y-268.606
X53.787Y-135.256
X56.327Y-84.456
X56.327Y-103.506
X56.327Y-198.756
X56.327Y-298.769
X56.327Y-41.594
X56.327Y-65.406
X56.327Y-122.556
X56.327Y-160.656
X56.327Y-179.706
X56.327Y-217.806
X56.327Y-236.856
X56.327Y-255.906
X56.327Y-274.956
X56.327Y-141.606
X72.837Y-42.388
X72.837Y-73.344
X72.837Y-111.444
X72.837Y-130.494
X72.837Y-149.544
X72.837Y-168.594
X72.837Y-187.644
X72.837Y-206.694
X72.837Y-225.744
X72.837Y-244.794
X72.837Y-263.844
X72.837Y-92.394
X72.837Y-290.038
X75.377Y-48.738
X75.377Y-79.694
X75.377Y-117.794
X75.377Y-136.844
X75.377Y-155.894
X75.377Y-174.944
X75.377Y-193.994
X75.377Y-213.044
X75.377Y-232.094
X75.377Y-251.144
X75.377Y-270.194
X75.377Y-98.744
X75.377Y-296.388
X91.887Y-30.481
X91.887Y-56.675
X91.887Y-120.969
X91.887Y-140.019
X91.887Y-159.069
X91.887Y-235.269
X91.887Y-254.319
X91.887Y-82.869
X91.887Y-101.919
X91.887Y-178.119
X91.887Y-197.169
X91.887Y-216.219
X91.887Y-285.275
X94.427Y-36.831
X94.427Y-63.025
X94.427Y-127.319
X94.427Y-146.369
X94.427Y-165.419
X94.427Y-241.619
X94.427Y-260.669
X94.427Y-89.219
X94.427Y-108.269
X94.427Y-184.469
X94.427Y-203.519
X94.427Y-222.569
X94.427Y-291.625
X110.937Y-78.106
X110.937Y-101.919
X110.937Y-163.831
X110.937Y-244.835
X110.937Y-268.647
X113.477Y-84.456
X113.477Y-108.269
X113.477Y-170.181
X113.477Y-251.185
X113.477Y-274.997
T0
M30
