M48
;DRILL file {KiCad 4.0.7-e2-6376~58~ubuntu16.04.1} date Sat Sep 30 05:06:11 2017
;FORMAT={-:-/ absolute / metric / decimal}
FMAT,2
METRIC,TZ
T1C0.600
T2C0.700
T3C1.000
T4C1.499
T5C3.200
%
G90
G05
M71
T1
X53.5Y-348.
X54.3Y-343.4
X56.7Y-328.6
X60.Y-349.1
X60.656Y-335.222
X61.778Y-319.344
X62.822Y-311.422
X63.Y-330.2
X64.4Y-330.2
X65.378Y-235.344
X65.6Y-158.5
X65.8Y-330.2
X67.2Y-330.2
X67.9Y-331.3
X68.578Y-323.744
X68.734Y-332.222
X68.878Y-353.744
X69.534Y-326.022
X69.578Y-314.544
X69.678Y-318.244
X69.678Y-352.344
X69.8Y-156.8
X71.578Y-347.344
X72.378Y-206.944
X72.7Y-321.8
X72.978Y-354.944
X73.078Y-361.044
X73.178Y-330.344
X76.878Y-342.822
X79.734Y-283.022
X79.734Y-359.022
X83.7Y-339.9
X84.2Y-321.1
X85.4Y-331.
X87.278Y-343.044
X87.278Y-344.444
X87.478Y-339.144
X87.534Y-332.022
X88.6Y-204.5
X88.606Y-190.047
X88.934Y-286.422
X89.3Y-326.1
X89.334Y-334.822
X89.7Y-322.8
X89.7Y-324.4
X91.078Y-311.444
X91.278Y-189.944
X92.178Y-332.044
X96.678Y-315.644
X104.378Y-142.544
X108.2Y-199.8
X108.2Y-204.4
X108.978Y-142.544
X109.378Y-236.044
X109.978Y-304.344
X110.037Y-188.856
X111.778Y-300.144
X119.134Y-211.422
X121.944Y-192.428
X122.278Y-230.244
X129.578Y-163.344
X131.578Y-168.044
T3
X55.666Y-120.991
X55.666Y-140.041
X55.666Y-159.091
X55.666Y-178.141
X55.666Y-197.191
X55.666Y-216.241
X55.666Y-235.291
X55.666Y-254.341
X55.666Y-273.391
X55.666Y-292.441
X55.666Y-311.491
X68.366Y-120.991
X68.366Y-140.041
X68.366Y-159.091
X68.366Y-178.141
X68.366Y-197.191
X68.366Y-216.241
X68.366Y-235.291
X68.366Y-254.341
X68.366Y-273.391
X68.366Y-292.441
X68.366Y-311.491
X70.747Y-108.291
X70.747Y-120.991
X70.747Y-311.491
X70.747Y-324.191
X70.747Y-355.544
X70.747Y-365.704
X74.716Y-130.516
X74.716Y-149.566
X74.716Y-168.616
X74.716Y-187.666
X74.716Y-206.716
X74.716Y-225.766
X74.716Y-244.816
X74.716Y-263.866
X74.716Y-282.916
X74.716Y-301.966
X74.716Y-321.016
X74.716Y-359.116
X87.416Y-130.516
X87.416Y-149.566
X87.416Y-168.616
X87.416Y-187.666
X87.416Y-206.716
X87.416Y-225.766
X87.416Y-244.816
X87.416Y-263.866
X87.416Y-282.916
X87.416Y-301.966
X87.416Y-321.016
X87.416Y-359.116
X89.797Y-328.159
X89.797Y-340.859
X89.934Y-120.722
X89.934Y-133.422
X93.766Y-120.991
X93.766Y-144.803
X93.766Y-163.853
X93.766Y-182.903
X93.766Y-201.953
X93.766Y-221.003
X93.766Y-240.053
X93.766Y-259.103
X93.766Y-278.153
X93.766Y-297.203
X93.766Y-316.253
X93.766Y-335.303
X93.766Y-354.353
X106.466Y-120.991
X106.466Y-144.803
X106.466Y-163.853
X106.466Y-182.903
X106.466Y-201.953
X106.466Y-221.003
X106.466Y-240.053
X106.466Y-259.103
X106.466Y-278.153
X106.466Y-297.203
X106.466Y-316.253
X106.466Y-335.303
X106.466Y-354.353
X112.816Y-125.753
X112.816Y-130.516
X112.816Y-154.328
X112.816Y-173.378
X112.816Y-192.428
X112.816Y-211.478
X112.816Y-230.528
X112.816Y-249.578
X112.816Y-268.628
X112.816Y-287.678
X112.816Y-306.728
X112.816Y-325.778
X112.816Y-349.591
X125.516Y-125.753
X125.516Y-130.516
X125.516Y-154.328
X125.516Y-173.378
X125.516Y-192.428
X125.516Y-211.478
X125.516Y-230.528
X125.516Y-249.578
X125.516Y-268.628
X125.516Y-287.678
X125.516Y-306.728
X125.516Y-325.778
X125.516Y-349.591
X129.088Y-154.725
X129.088Y-167.425
X131.866Y-173.378
X131.866Y-235.291
X131.866Y-316.253
X131.866Y-340.066
X144.566Y-173.378
X144.566Y-235.291
X144.566Y-316.253
X144.566Y-340.066
T4
X56.722Y-108.966
X56.722Y-128.016
X56.722Y-147.066
X56.722Y-166.116
X56.722Y-185.166
X56.722Y-204.216
X56.722Y-223.266
X56.722Y-242.316
X56.722Y-261.366
X56.722Y-280.416
X56.722Y-299.466
X56.722Y-318.516
X56.722Y-337.566
X56.722Y-356.616
X57.222Y-113.966
X57.222Y-133.016
X57.222Y-152.066
X57.222Y-171.116
X57.222Y-190.166
X57.222Y-209.216
X57.222Y-228.266
X57.222Y-247.316
X57.222Y-266.366
X57.222Y-285.416
X57.222Y-304.466
X57.222Y-323.516
X57.222Y-342.566
X57.222Y-361.616
X75.772Y-113.728
X75.772Y-137.541
X75.772Y-156.591
X75.772Y-175.641
X75.772Y-194.691
X75.772Y-213.741
X75.772Y-232.791
X75.772Y-251.841
X75.772Y-270.891
X75.772Y-289.941
X75.772Y-308.991
X75.772Y-328.041
X75.772Y-347.091
X75.772Y-366.141
X76.272Y-118.728
X76.272Y-142.541
X76.272Y-161.591
X76.272Y-180.641
X76.272Y-199.691
X76.272Y-218.741
X76.272Y-237.791
X76.272Y-256.841
X76.272Y-275.891
X76.272Y-294.941
X76.272Y-313.991
X76.272Y-333.041
X76.272Y-352.091
X76.272Y-371.141
X94.822Y-128.016
X94.822Y-151.828
X94.822Y-170.878
X94.822Y-189.928
X94.822Y-208.978
X94.822Y-228.028
X94.822Y-247.078
X94.822Y-266.128
X94.822Y-285.178
X94.822Y-304.228
X94.822Y-323.278
X94.822Y-342.328
X94.822Y-361.378
X95.322Y-133.016
X95.322Y-156.828
X95.322Y-175.878
X95.322Y-194.928
X95.322Y-213.978
X95.322Y-233.028
X95.322Y-252.078
X95.322Y-271.128
X95.322Y-290.178
X95.322Y-309.228
X95.322Y-328.278
X95.322Y-347.328
X95.322Y-366.378
X113.872Y-113.728
X113.872Y-137.541
X113.872Y-161.353
X113.872Y-180.403
X113.872Y-199.453
X113.872Y-218.503
X113.872Y-237.553
X113.872Y-256.603
X113.872Y-275.653
X113.872Y-294.703
X113.872Y-313.753
X113.872Y-332.803
X113.872Y-356.616
X114.372Y-118.728
X114.372Y-142.541
X114.372Y-166.353
X114.372Y-185.403
X114.372Y-204.453
X114.372Y-223.503
X114.372Y-242.553
X114.372Y-261.603
X114.372Y-280.653
X114.372Y-299.703
X114.372Y-318.753
X114.372Y-337.803
X114.372Y-361.616
X132.922Y-156.591
X132.922Y-180.403
X132.922Y-251.841
X132.922Y-323.278
X132.922Y-347.091
X133.422Y-161.591
X133.422Y-185.403
X133.422Y-256.841
X133.422Y-328.278
X133.422Y-352.091
T5
X70.747Y-306.728
X80.272Y-104.322
X89.797Y-213.859
X118.372Y-371.022
X137.422Y-197.191
X137.422Y-311.491
T2
X48.047Y-345.941G85X50.547Y-345.941
G05
X48.047Y-353.241G85X50.547Y-353.241
G05
T0
M30
