G04 #@! TF.FileFunction,Copper,L2,Bot,Signal*
%FSLAX46Y46*%
G04 Gerber Fmt 4.6, Leading zero omitted, Abs format (unit mm)*
G04 Created by KiCad (PCBNEW 4.0.7-e2-6376~58~ubuntu16.04.1) date Thu Oct  5 22:52:59 2017*
%MOMM*%
%LPD*%
G01*
G04 APERTURE LIST*
%ADD10C,0.150000*%
%ADD11C,2.286000*%
%ADD12R,1.250000X1.500000*%
%ADD13R,1.500000X1.250000*%
%ADD14R,1.400000X0.500000*%
%ADD15O,3.800000X1.300000*%
%ADD16R,1.300000X1.500000*%
%ADD17R,1.500000X1.300000*%
%ADD18R,1.700000X1.000000*%
%ADD19R,1.200000X1.400000*%
%ADD20R,2.000000X2.000000*%
%ADD21O,2.000000X2.000000*%
%ADD22C,4.000000*%
%ADD23C,1.000000*%
%ADD24C,0.800000*%
%ADD25C,0.400000*%
%ADD26C,1.200000*%
G04 APERTURE END LIST*
D10*
D11*
X133421875Y-328278125D03*
X132921875Y-323278125D03*
X57221875Y-342565625D03*
X56721875Y-337565625D03*
D10*
G36*
X66827667Y-347649345D02*
X66438759Y-347260437D01*
X67499419Y-346199777D01*
X67888327Y-346588685D01*
X66827667Y-347649345D01*
X66827667Y-347649345D01*
G37*
G36*
X66261982Y-347083659D02*
X65873074Y-346694751D01*
X66933734Y-345634091D01*
X67322642Y-346022999D01*
X66261982Y-347083659D01*
X66261982Y-347083659D01*
G37*
G36*
X65696297Y-346517974D02*
X65307389Y-346129066D01*
X66368049Y-345068406D01*
X66756957Y-345457314D01*
X65696297Y-346517974D01*
X65696297Y-346517974D01*
G37*
G36*
X65130611Y-345952289D02*
X64741703Y-345563381D01*
X65802363Y-344502721D01*
X66191271Y-344891629D01*
X65130611Y-345952289D01*
X65130611Y-345952289D01*
G37*
G36*
X64564926Y-345386603D02*
X64176018Y-344997695D01*
X65236678Y-343937035D01*
X65625586Y-344325943D01*
X64564926Y-345386603D01*
X64564926Y-345386603D01*
G37*
G36*
X63999240Y-344820918D02*
X63610332Y-344432010D01*
X64670992Y-343371350D01*
X65059900Y-343760258D01*
X63999240Y-344820918D01*
X63999240Y-344820918D01*
G37*
G36*
X63433555Y-344255232D02*
X63044647Y-343866324D01*
X64105307Y-342805664D01*
X64494215Y-343194572D01*
X63433555Y-344255232D01*
X63433555Y-344255232D01*
G37*
G36*
X62867869Y-343689547D02*
X62478961Y-343300639D01*
X63539621Y-342239979D01*
X63928529Y-342628887D01*
X62867869Y-343689547D01*
X62867869Y-343689547D01*
G37*
G36*
X62302184Y-343123861D02*
X61913276Y-342734953D01*
X62973936Y-341674293D01*
X63362844Y-342063201D01*
X62302184Y-343123861D01*
X62302184Y-343123861D01*
G37*
G36*
X61736499Y-342558176D02*
X61347591Y-342169268D01*
X62408251Y-341108608D01*
X62797159Y-341497516D01*
X61736499Y-342558176D01*
X61736499Y-342558176D01*
G37*
G36*
X61170813Y-341992491D02*
X60781905Y-341603583D01*
X61842565Y-340542923D01*
X62231473Y-340931831D01*
X61170813Y-341992491D01*
X61170813Y-341992491D01*
G37*
G36*
X60781905Y-338527667D02*
X61170813Y-338138759D01*
X62231473Y-339199419D01*
X61842565Y-339588327D01*
X60781905Y-338527667D01*
X60781905Y-338527667D01*
G37*
G36*
X61347591Y-337961982D02*
X61736499Y-337573074D01*
X62797159Y-338633734D01*
X62408251Y-339022642D01*
X61347591Y-337961982D01*
X61347591Y-337961982D01*
G37*
G36*
X61913276Y-337396297D02*
X62302184Y-337007389D01*
X63362844Y-338068049D01*
X62973936Y-338456957D01*
X61913276Y-337396297D01*
X61913276Y-337396297D01*
G37*
G36*
X62478961Y-336830611D02*
X62867869Y-336441703D01*
X63928529Y-337502363D01*
X63539621Y-337891271D01*
X62478961Y-336830611D01*
X62478961Y-336830611D01*
G37*
G36*
X63044647Y-336264926D02*
X63433555Y-335876018D01*
X64494215Y-336936678D01*
X64105307Y-337325586D01*
X63044647Y-336264926D01*
X63044647Y-336264926D01*
G37*
G36*
X63610332Y-335699240D02*
X63999240Y-335310332D01*
X65059900Y-336370992D01*
X64670992Y-336759900D01*
X63610332Y-335699240D01*
X63610332Y-335699240D01*
G37*
G36*
X64176018Y-335133555D02*
X64564926Y-334744647D01*
X65625586Y-335805307D01*
X65236678Y-336194215D01*
X64176018Y-335133555D01*
X64176018Y-335133555D01*
G37*
G36*
X64741703Y-334567869D02*
X65130611Y-334178961D01*
X66191271Y-335239621D01*
X65802363Y-335628529D01*
X64741703Y-334567869D01*
X64741703Y-334567869D01*
G37*
G36*
X65307389Y-334002184D02*
X65696297Y-333613276D01*
X66756957Y-334673936D01*
X66368049Y-335062844D01*
X65307389Y-334002184D01*
X65307389Y-334002184D01*
G37*
G36*
X65873074Y-333436499D02*
X66261982Y-333047591D01*
X67322642Y-334108251D01*
X66933734Y-334497159D01*
X65873074Y-333436499D01*
X65873074Y-333436499D01*
G37*
G36*
X66438759Y-332870813D02*
X66827667Y-332481905D01*
X67888327Y-333542565D01*
X67499419Y-333931473D01*
X66438759Y-332870813D01*
X66438759Y-332870813D01*
G37*
G36*
X69231831Y-333931473D02*
X68842923Y-333542565D01*
X69903583Y-332481905D01*
X70292491Y-332870813D01*
X69231831Y-333931473D01*
X69231831Y-333931473D01*
G37*
G36*
X69797516Y-334497159D02*
X69408608Y-334108251D01*
X70469268Y-333047591D01*
X70858176Y-333436499D01*
X69797516Y-334497159D01*
X69797516Y-334497159D01*
G37*
G36*
X70363201Y-335062844D02*
X69974293Y-334673936D01*
X71034953Y-333613276D01*
X71423861Y-334002184D01*
X70363201Y-335062844D01*
X70363201Y-335062844D01*
G37*
G36*
X70928887Y-335628529D02*
X70539979Y-335239621D01*
X71600639Y-334178961D01*
X71989547Y-334567869D01*
X70928887Y-335628529D01*
X70928887Y-335628529D01*
G37*
G36*
X71494572Y-336194215D02*
X71105664Y-335805307D01*
X72166324Y-334744647D01*
X72555232Y-335133555D01*
X71494572Y-336194215D01*
X71494572Y-336194215D01*
G37*
G36*
X72060258Y-336759900D02*
X71671350Y-336370992D01*
X72732010Y-335310332D01*
X73120918Y-335699240D01*
X72060258Y-336759900D01*
X72060258Y-336759900D01*
G37*
G36*
X72625943Y-337325586D02*
X72237035Y-336936678D01*
X73297695Y-335876018D01*
X73686603Y-336264926D01*
X72625943Y-337325586D01*
X72625943Y-337325586D01*
G37*
G36*
X73191629Y-337891271D02*
X72802721Y-337502363D01*
X73863381Y-336441703D01*
X74252289Y-336830611D01*
X73191629Y-337891271D01*
X73191629Y-337891271D01*
G37*
G36*
X73757314Y-338456957D02*
X73368406Y-338068049D01*
X74429066Y-337007389D01*
X74817974Y-337396297D01*
X73757314Y-338456957D01*
X73757314Y-338456957D01*
G37*
G36*
X74322999Y-339022642D02*
X73934091Y-338633734D01*
X74994751Y-337573074D01*
X75383659Y-337961982D01*
X74322999Y-339022642D01*
X74322999Y-339022642D01*
G37*
G36*
X74888685Y-339588327D02*
X74499777Y-339199419D01*
X75560437Y-338138759D01*
X75949345Y-338527667D01*
X74888685Y-339588327D01*
X74888685Y-339588327D01*
G37*
G36*
X74499777Y-340931831D02*
X74888685Y-340542923D01*
X75949345Y-341603583D01*
X75560437Y-341992491D01*
X74499777Y-340931831D01*
X74499777Y-340931831D01*
G37*
G36*
X73934091Y-341497516D02*
X74322999Y-341108608D01*
X75383659Y-342169268D01*
X74994751Y-342558176D01*
X73934091Y-341497516D01*
X73934091Y-341497516D01*
G37*
G36*
X73368406Y-342063201D02*
X73757314Y-341674293D01*
X74817974Y-342734953D01*
X74429066Y-343123861D01*
X73368406Y-342063201D01*
X73368406Y-342063201D01*
G37*
G36*
X72802721Y-342628887D02*
X73191629Y-342239979D01*
X74252289Y-343300639D01*
X73863381Y-343689547D01*
X72802721Y-342628887D01*
X72802721Y-342628887D01*
G37*
G36*
X72237035Y-343194572D02*
X72625943Y-342805664D01*
X73686603Y-343866324D01*
X73297695Y-344255232D01*
X72237035Y-343194572D01*
X72237035Y-343194572D01*
G37*
G36*
X71671350Y-343760258D02*
X72060258Y-343371350D01*
X73120918Y-344432010D01*
X72732010Y-344820918D01*
X71671350Y-343760258D01*
X71671350Y-343760258D01*
G37*
G36*
X71105664Y-344325943D02*
X71494572Y-343937035D01*
X72555232Y-344997695D01*
X72166324Y-345386603D01*
X71105664Y-344325943D01*
X71105664Y-344325943D01*
G37*
G36*
X70539979Y-344891629D02*
X70928887Y-344502721D01*
X71989547Y-345563381D01*
X71600639Y-345952289D01*
X70539979Y-344891629D01*
X70539979Y-344891629D01*
G37*
G36*
X69974293Y-345457314D02*
X70363201Y-345068406D01*
X71423861Y-346129066D01*
X71034953Y-346517974D01*
X69974293Y-345457314D01*
X69974293Y-345457314D01*
G37*
G36*
X69408608Y-346022999D02*
X69797516Y-345634091D01*
X70858176Y-346694751D01*
X70469268Y-347083659D01*
X69408608Y-346022999D01*
X69408608Y-346022999D01*
G37*
G36*
X68842923Y-346588685D02*
X69231831Y-346199777D01*
X70292491Y-347260437D01*
X69903583Y-347649345D01*
X68842923Y-346588685D01*
X68842923Y-346588685D01*
G37*
D11*
X95321875Y-156828125D03*
X94821875Y-151828125D03*
X114371875Y-204453125D03*
X113871875Y-199453125D03*
X57221875Y-171115625D03*
X56721875Y-166115625D03*
X114371875Y-185403125D03*
X113871875Y-180403125D03*
X114371875Y-166353125D03*
X113871875Y-161353125D03*
X57221875Y-190165625D03*
X56721875Y-185165625D03*
X57221875Y-361615625D03*
X56721875Y-356615625D03*
X57221875Y-323515625D03*
X56721875Y-318515625D03*
X57221875Y-304465625D03*
X56721875Y-299465625D03*
X57221875Y-285415625D03*
X56721875Y-280415625D03*
X57221875Y-266365625D03*
X56721875Y-261365625D03*
X57221875Y-247315625D03*
X56721875Y-242315625D03*
X57221875Y-228265625D03*
X56721875Y-223265625D03*
X57221875Y-209215625D03*
X56721875Y-204215625D03*
X95321875Y-175878125D03*
X94821875Y-170878125D03*
X57221875Y-152065625D03*
X56721875Y-147065625D03*
X95321875Y-347328125D03*
X94821875Y-342328125D03*
X114371875Y-261603125D03*
X113871875Y-256603125D03*
X114371875Y-299703125D03*
X113871875Y-294703125D03*
X95321875Y-309228125D03*
X94821875Y-304228125D03*
X76271875Y-313990625D03*
X75771875Y-308990625D03*
X95321875Y-290178125D03*
X94821875Y-285178125D03*
X95321875Y-271128125D03*
X94821875Y-266128125D03*
X95321875Y-252078125D03*
X94821875Y-247078125D03*
X76271875Y-218740625D03*
X75771875Y-213740625D03*
X95321875Y-233028125D03*
X94821875Y-228028125D03*
X95321875Y-213978125D03*
X94821875Y-208978125D03*
X95321875Y-194928125D03*
X94821875Y-189928125D03*
X114371875Y-223503125D03*
X113871875Y-218503125D03*
X114371875Y-242553125D03*
X113871875Y-237553125D03*
X76271875Y-199690625D03*
X75771875Y-194690625D03*
X76271875Y-180640625D03*
X75771875Y-175640625D03*
X76271875Y-352090625D03*
X75771875Y-347090625D03*
X76271875Y-294940625D03*
X75771875Y-289940625D03*
X95321875Y-328278125D03*
X94821875Y-323278125D03*
X76271875Y-275890625D03*
X75771875Y-270890625D03*
X76271875Y-237790625D03*
X75771875Y-232790625D03*
X114371875Y-280653125D03*
X113871875Y-275653125D03*
X76271875Y-333040625D03*
X75771875Y-328040625D03*
X114371875Y-318753125D03*
X113871875Y-313753125D03*
X76271875Y-256840625D03*
X75771875Y-251840625D03*
X114371875Y-337803125D03*
X113871875Y-332803125D03*
X76271875Y-161590625D03*
X75771875Y-156590625D03*
X57221875Y-133015625D03*
X56721875Y-128015625D03*
X76271875Y-142540625D03*
X75771875Y-137540625D03*
X57221875Y-113965625D03*
X56721875Y-108965625D03*
X133421875Y-352090625D03*
X132921875Y-347090625D03*
D12*
X57134375Y-333071875D03*
X57134375Y-330571875D03*
D13*
X61384375Y-328021875D03*
X58884375Y-328021875D03*
X78884375Y-341021875D03*
X81384375Y-341021875D03*
D12*
X69534375Y-330071875D03*
X69534375Y-327571875D03*
X65334375Y-350271875D03*
X65334375Y-352771875D03*
D13*
X59884375Y-345521875D03*
X57384375Y-345521875D03*
D12*
X71934375Y-350371875D03*
X71934375Y-352871875D03*
D13*
X59884375Y-347221875D03*
X57384375Y-347221875D03*
D14*
X51696875Y-351190625D03*
X51696875Y-350390625D03*
X51696875Y-349590625D03*
X51696875Y-348790625D03*
X51696875Y-347990625D03*
D15*
X49296875Y-353240625D03*
X49296875Y-345940625D03*
D16*
X59134375Y-338771875D03*
X59134375Y-336071875D03*
D17*
X81484375Y-339021875D03*
X78784375Y-339021875D03*
X57884375Y-351421875D03*
X55184375Y-351421875D03*
X57884375Y-349621875D03*
X55184375Y-349621875D03*
D18*
X68084375Y-317521875D03*
X61784375Y-317521875D03*
X68084375Y-321321875D03*
X61784375Y-321321875D03*
D19*
X60881250Y-332931250D03*
X60881250Y-330531250D03*
X59181250Y-332931250D03*
X59181250Y-330531250D03*
D11*
X95321875Y-366378125D03*
X94821875Y-361378125D03*
D20*
X70746875Y-311490625D03*
D21*
X70746875Y-324190625D03*
D20*
X68365625Y-311490625D03*
D21*
X55665625Y-311490625D03*
D20*
X68365625Y-292440625D03*
D21*
X55665625Y-292440625D03*
D20*
X68365625Y-273390625D03*
D21*
X55665625Y-273390625D03*
D20*
X87415625Y-359115625D03*
D21*
X74715625Y-359115625D03*
D20*
X89796875Y-328159375D03*
D21*
X89796875Y-340859375D03*
D20*
X87415625Y-321015625D03*
D21*
X74715625Y-321015625D03*
D20*
X87415625Y-301965625D03*
D21*
X74715625Y-301965625D03*
D20*
X87415625Y-282915625D03*
D21*
X74715625Y-282915625D03*
D20*
X68365625Y-254340625D03*
D21*
X55665625Y-254340625D03*
D20*
X106465625Y-354353125D03*
D21*
X93765625Y-354353125D03*
D20*
X106465625Y-335303125D03*
D21*
X93765625Y-335303125D03*
D20*
X106465625Y-316253125D03*
D21*
X93765625Y-316253125D03*
D20*
X106465625Y-297203125D03*
D21*
X93765625Y-297203125D03*
D20*
X106465625Y-278153125D03*
D21*
X93765625Y-278153125D03*
D20*
X87415625Y-263865625D03*
D21*
X74715625Y-263865625D03*
D20*
X125515625Y-325778125D03*
D21*
X112815625Y-325778125D03*
D20*
X125515625Y-306728125D03*
D21*
X112815625Y-306728125D03*
D20*
X125515625Y-287678125D03*
D21*
X112815625Y-287678125D03*
D20*
X125515625Y-268628125D03*
D21*
X112815625Y-268628125D03*
D20*
X106465625Y-259103125D03*
D21*
X93765625Y-259103125D03*
D20*
X87415625Y-244815625D03*
D21*
X74715625Y-244815625D03*
D20*
X125515625Y-349590625D03*
D21*
X112815625Y-349590625D03*
D20*
X144565625Y-340065625D03*
D21*
X131865625Y-340065625D03*
D20*
X144565625Y-316253125D03*
D21*
X131865625Y-316253125D03*
D20*
X125515625Y-249578125D03*
D21*
X112815625Y-249578125D03*
D20*
X106465625Y-240053125D03*
D21*
X93765625Y-240053125D03*
D20*
X144565625Y-235290625D03*
D21*
X131865625Y-235290625D03*
D20*
X68365625Y-197190625D03*
D21*
X55665625Y-197190625D03*
D20*
X68365625Y-178140625D03*
D21*
X55665625Y-178140625D03*
D20*
X68365625Y-159090625D03*
D21*
X55665625Y-159090625D03*
D20*
X70746875Y-120990625D03*
D21*
X70746875Y-108290625D03*
D20*
X87415625Y-187665625D03*
D21*
X74715625Y-187665625D03*
D20*
X87415625Y-168615625D03*
D21*
X74715625Y-168615625D03*
D20*
X87415625Y-149565625D03*
D21*
X74715625Y-149565625D03*
D20*
X87415625Y-130515625D03*
D21*
X74715625Y-130515625D03*
D20*
X89934375Y-133421875D03*
D21*
X89934375Y-120721875D03*
D20*
X68365625Y-235290625D03*
D21*
X55665625Y-235290625D03*
D20*
X87415625Y-206715625D03*
D21*
X74715625Y-206715625D03*
D20*
X106465625Y-182903125D03*
D21*
X93765625Y-182903125D03*
D20*
X106465625Y-163853125D03*
D21*
X93765625Y-163853125D03*
D20*
X106465625Y-144803125D03*
D21*
X93765625Y-144803125D03*
D20*
X106465625Y-120990625D03*
D21*
X93765625Y-120990625D03*
D20*
X87415625Y-225765625D03*
D21*
X74715625Y-225765625D03*
D20*
X106465625Y-201953125D03*
D21*
X93765625Y-201953125D03*
D20*
X125515625Y-173378125D03*
D21*
X112815625Y-173378125D03*
D20*
X125515625Y-154328125D03*
D21*
X112815625Y-154328125D03*
D20*
X125515625Y-130515625D03*
D21*
X112815625Y-130515625D03*
D20*
X125515625Y-125753125D03*
D21*
X112815625Y-125753125D03*
D20*
X106465625Y-221003125D03*
D21*
X93765625Y-221003125D03*
D20*
X125515625Y-230528125D03*
D21*
X112815625Y-230528125D03*
D20*
X125515625Y-211478125D03*
D21*
X112815625Y-211478125D03*
D20*
X125515625Y-192428125D03*
D21*
X112815625Y-192428125D03*
D20*
X144565625Y-173378125D03*
D21*
X131865625Y-173378125D03*
D20*
X129087500Y-167425000D03*
D21*
X129087500Y-154725000D03*
D20*
X68365625Y-140040625D03*
D21*
X55665625Y-140040625D03*
D20*
X68365625Y-120990625D03*
D21*
X55665625Y-120990625D03*
D20*
X68365625Y-216240625D03*
D21*
X55665625Y-216240625D03*
D11*
X76271875Y-371140625D03*
X75771875Y-366140625D03*
D20*
X70746875Y-355543750D03*
D21*
X70746875Y-365703750D03*
D11*
X76271875Y-118728125D03*
X75771875Y-113728125D03*
X114371875Y-361615625D03*
X113871875Y-356615625D03*
X95321875Y-133015625D03*
X94821875Y-128015625D03*
X133421875Y-161590625D03*
X132921875Y-156590625D03*
X133421875Y-185403125D03*
X132921875Y-180403125D03*
X114371875Y-118728125D03*
X113871875Y-113728125D03*
X114371875Y-142540625D03*
X113871875Y-137540625D03*
X133421875Y-256840625D03*
X132921875Y-251840625D03*
D22*
X118371875Y-371021875D03*
X80271875Y-104321875D03*
X137421875Y-197190625D03*
X137421875Y-311490625D03*
X70746875Y-306728125D03*
X89796875Y-213859375D03*
D23*
X72700000Y-321800000D03*
X131578125Y-168043750D03*
X108978125Y-142543750D03*
X104378125Y-142543750D03*
X129578125Y-163343750D03*
X54300000Y-343400000D03*
X109978125Y-304343750D03*
X87534375Y-332021875D03*
X92178125Y-332043750D03*
X96678125Y-315643750D03*
X91078125Y-311443750D03*
X84200000Y-321100000D03*
X111778125Y-300143750D03*
X89334375Y-334821875D03*
X62821875Y-311421875D03*
X63000000Y-330200000D03*
X79734375Y-283021875D03*
X88934375Y-286421875D03*
X73178125Y-330343750D03*
X109378125Y-236043750D03*
X111200000Y-191200000D03*
X111200000Y-204400000D03*
X89300000Y-326100000D03*
X122278125Y-230243750D03*
X119134375Y-211421875D03*
X69800000Y-156800000D03*
X65600000Y-158500000D03*
X89700000Y-324400000D03*
X110037500Y-188856250D03*
X60000000Y-349100000D03*
X56700000Y-328600000D03*
X53500000Y-348000000D03*
X76878125Y-342821875D03*
X83700000Y-339900000D03*
X68878125Y-353743750D03*
X72978125Y-354943750D03*
X60656250Y-335221875D03*
X71578125Y-347343750D03*
X61778125Y-319343750D03*
X69678125Y-318243750D03*
X68734375Y-332221875D03*
X69534375Y-326021875D03*
X67900000Y-331300000D03*
X69678125Y-352343750D03*
X69578125Y-314543750D03*
X68578125Y-323743750D03*
X87278125Y-343043750D03*
X87478125Y-339143750D03*
X87278125Y-344443750D03*
X73078125Y-361043750D03*
X79734375Y-359021875D03*
X88600000Y-204500000D03*
X67200000Y-330200000D03*
X65378125Y-235343750D03*
X91278125Y-189943750D03*
X65800000Y-330200000D03*
X72378125Y-206943750D03*
X88606250Y-190046875D03*
X64400000Y-330200000D03*
X85400000Y-331000000D03*
X89700000Y-322800000D03*
D24*
X110978125Y-123543750D02*
X110978125Y-137443750D01*
X110978125Y-137443750D02*
X113575000Y-140040625D01*
X113575000Y-140040625D02*
X114875000Y-140040625D01*
X114875000Y-140040625D02*
X116178125Y-141343750D01*
X124796875Y-161943750D02*
X133421875Y-161943750D01*
X118478125Y-155625000D02*
X124796875Y-161943750D01*
X118478125Y-143643750D02*
X118478125Y-155625000D01*
X114875000Y-140040625D02*
X116178125Y-141343750D01*
X116178125Y-141343750D02*
X118478125Y-143643750D01*
X110978125Y-123543750D02*
X114371875Y-120150000D01*
X114371875Y-120150000D02*
X114371875Y-118728125D01*
X95321875Y-133015625D02*
X95321875Y-130200000D01*
X95321875Y-130200000D02*
X99321875Y-126200000D01*
X92678125Y-128643750D02*
X92678125Y-123643750D01*
X92678125Y-123643750D02*
X91578125Y-122543750D01*
X57221875Y-113965625D02*
X57221875Y-113700000D01*
X57221875Y-113700000D02*
X58678125Y-112243750D01*
X71278125Y-112243750D02*
X73678125Y-114643750D01*
X58678125Y-112243750D02*
X71278125Y-112243750D01*
X76271875Y-118728125D02*
X76271875Y-117237500D01*
X76271875Y-117237500D02*
X73678125Y-114643750D01*
X76271875Y-118728125D02*
X82362500Y-118728125D01*
X86178125Y-122543750D02*
X91578125Y-122543750D01*
X82362500Y-118728125D02*
X86178125Y-122543750D01*
X95321875Y-133015625D02*
X95321875Y-131287500D01*
X95321875Y-131287500D02*
X92678125Y-128643750D01*
D25*
X53100000Y-343700000D02*
X53100000Y-339587500D01*
X52534375Y-339021875D02*
X52534375Y-248221875D01*
X53800000Y-344400000D02*
X53100000Y-343700000D01*
X61756250Y-344400000D02*
X53800000Y-344400000D01*
X63191487Y-342964763D02*
X61756250Y-344400000D01*
X52534375Y-118653125D02*
X57221875Y-113965625D01*
X52534375Y-248221875D02*
X52534375Y-118653125D01*
X53100000Y-339587500D02*
X52534375Y-339021875D01*
D24*
X95321875Y-132209375D02*
X95321875Y-133015625D01*
X99321875Y-126200000D02*
X99321875Y-120990625D01*
X99321875Y-120990625D02*
X101584375Y-118728125D01*
X101584375Y-118728125D02*
X114371875Y-118728125D01*
X114371875Y-118728125D02*
X113490625Y-118728125D01*
D26*
X95321875Y-133015625D02*
X95321875Y-132209375D01*
D25*
X63203745Y-342964763D02*
X63191487Y-342964763D01*
D26*
X114371875Y-118728125D02*
X114371875Y-119037500D01*
X95321875Y-132468750D02*
X95321875Y-133015625D01*
D24*
X72534375Y-323500000D02*
X72534375Y-321965625D01*
X72534375Y-321965625D02*
X72700000Y-321800000D01*
X128578125Y-176343750D02*
X128578125Y-171043750D01*
X128578125Y-171043750D02*
X131578125Y-168043750D01*
X128578125Y-176343750D02*
X128578125Y-179543750D01*
X117181250Y-146643750D02*
X117181250Y-144146875D01*
X115575000Y-142540625D02*
X114371875Y-142540625D01*
X117181250Y-144146875D02*
X115575000Y-142540625D01*
X104378125Y-142543750D02*
X104378125Y-142143750D01*
X108981250Y-142540625D02*
X108978125Y-142543750D01*
X114371875Y-142540625D02*
X108981250Y-142540625D01*
X104378125Y-142143750D02*
X101240625Y-139006250D01*
X101240625Y-139006250D02*
X94715625Y-139006250D01*
X87209375Y-126175000D02*
X82409375Y-126175000D01*
X82409375Y-126175000D02*
X79243750Y-123009375D01*
X76478125Y-123009375D02*
X79243750Y-123009375D01*
X87209375Y-126175000D02*
X91778125Y-130743750D01*
X76271875Y-142540625D02*
X76271875Y-140150000D01*
X76478125Y-130743750D02*
X76478125Y-123009375D01*
X77628125Y-131893750D02*
X76478125Y-130743750D01*
X77628125Y-138793750D02*
X77628125Y-131893750D01*
X76271875Y-140150000D02*
X77628125Y-138793750D01*
X133421875Y-185403125D02*
X133421875Y-184687500D01*
X117181250Y-153843750D02*
X117181250Y-156046875D01*
X117181250Y-146643750D02*
X117181250Y-153843750D01*
X117181250Y-156046875D02*
X124378125Y-163243750D01*
X124378125Y-163243750D02*
X129478125Y-163243750D01*
X129478125Y-163243750D02*
X129578125Y-163343750D01*
X133421875Y-185403125D02*
X133421875Y-184387500D01*
X133421875Y-184387500D02*
X128578125Y-179543750D01*
X95321875Y-156828125D02*
X95321875Y-154800000D01*
X95321875Y-154800000D02*
X96628125Y-153493750D01*
X96628125Y-153493750D02*
X96628125Y-145593750D01*
X96628125Y-145593750D02*
X95378125Y-144343750D01*
X95378125Y-144343750D02*
X95378125Y-139843750D01*
X95378125Y-139843750D02*
X95378125Y-139668750D01*
X57221875Y-133015625D02*
X57221875Y-130900000D01*
X57221875Y-130900000D02*
X58628125Y-129493750D01*
X58628125Y-129493750D02*
X58628125Y-121893750D01*
X58628125Y-121893750D02*
X61278125Y-119243750D01*
X61278125Y-119243750D02*
X72712500Y-119243750D01*
X72712500Y-119243750D02*
X76478125Y-123009375D01*
D25*
X72134375Y-332902762D02*
X70699077Y-334338060D01*
X72134375Y-329021875D02*
X72134375Y-332902762D01*
X72534375Y-328621875D02*
X72134375Y-329021875D01*
X72534375Y-323500000D02*
X72534375Y-328621875D01*
D24*
X91778125Y-130743750D02*
X91778125Y-136068750D01*
X91778125Y-136068750D02*
X94715625Y-139006250D01*
X94715625Y-139006250D02*
X95378125Y-139668750D01*
X95321875Y-156828125D02*
X95631250Y-156828125D01*
X57221875Y-133015625D02*
X57221875Y-132134375D01*
X114371875Y-142540625D02*
X114918750Y-142540625D01*
D26*
X57221875Y-133015625D02*
X57531250Y-133015625D01*
D25*
X70699077Y-334338060D02*
X70818190Y-334338060D01*
X70699077Y-334257173D02*
X70699077Y-334338060D01*
X70699077Y-334257173D02*
X70699077Y-334338060D01*
D24*
X93678125Y-351843750D02*
X93678125Y-348971875D01*
X93678125Y-348971875D02*
X95321875Y-347328125D01*
X93678125Y-351843750D02*
X89478125Y-356043750D01*
X116378125Y-332543750D02*
X116378125Y-337943750D01*
X116378125Y-337943750D02*
X117378125Y-338943750D01*
X122378125Y-354843750D02*
X118878125Y-354843750D01*
X131078125Y-354843750D02*
X122378125Y-354843750D01*
X133421875Y-352500000D02*
X131078125Y-354843750D01*
X118878125Y-354843750D02*
X117378125Y-353343750D01*
X117378125Y-353343750D02*
X117378125Y-338943750D01*
X116378125Y-332543750D02*
X115078125Y-331243750D01*
X115078125Y-325043750D02*
X115078125Y-319459375D01*
X115078125Y-325043750D02*
X115078125Y-331243750D01*
X115078125Y-319459375D02*
X114371875Y-318753125D01*
X133421875Y-352090625D02*
X133421875Y-352500000D01*
X95321875Y-347328125D02*
X96162500Y-347328125D01*
X108278125Y-324846875D02*
X114371875Y-318753125D01*
X108278125Y-355843750D02*
X108278125Y-324846875D01*
X107989062Y-356132813D02*
X108278125Y-355843750D01*
X104967188Y-356132813D02*
X107989062Y-356132813D01*
X104478125Y-355643750D02*
X104967188Y-356132813D01*
X104478125Y-355643750D02*
X104478125Y-355643750D01*
X96162500Y-347328125D02*
X104478125Y-355643750D01*
X88478125Y-361243750D02*
X88878125Y-361243750D01*
X76878125Y-353643750D02*
X76878125Y-357843750D01*
X76878125Y-357843750D02*
X80278125Y-361243750D01*
X80278125Y-361243750D02*
X88478125Y-361243750D01*
X76271875Y-353037500D02*
X76878125Y-353643750D01*
X88878125Y-361243750D02*
X89478125Y-360643750D01*
X89478125Y-360643750D02*
X89478125Y-356043750D01*
X76271875Y-352090625D02*
X76271875Y-353037500D01*
X57221875Y-361615625D02*
X57450000Y-361615625D01*
X57450000Y-361615625D02*
X58278125Y-362443750D01*
X76271875Y-353350000D02*
X76271875Y-352090625D01*
X67178125Y-362443750D02*
X76271875Y-353350000D01*
X58278125Y-362443750D02*
X67178125Y-362443750D01*
D26*
X133421875Y-352090625D02*
X133421875Y-352400000D01*
D25*
X76271875Y-352090625D02*
X76271875Y-351459375D01*
X76271875Y-351459375D02*
X72834375Y-348021875D01*
X72834375Y-346797117D02*
X71264763Y-345227505D01*
X72834375Y-348021875D02*
X72834375Y-346797117D01*
D26*
X95321875Y-347328125D02*
X95321875Y-346781249D01*
D24*
X56721875Y-356615625D02*
X56721875Y-359200000D01*
X68636875Y-363593750D02*
X70746875Y-365703750D01*
X56028125Y-363593750D02*
X68636875Y-363593750D01*
X55078125Y-362643750D02*
X56028125Y-363593750D01*
X55078125Y-360843750D02*
X55078125Y-362643750D01*
X56721875Y-359200000D02*
X55078125Y-360843750D01*
X56721875Y-356615625D02*
X56578125Y-356615625D01*
X109978125Y-304343750D02*
X109978125Y-304096875D01*
X109978125Y-304096875D02*
X114371875Y-299703125D01*
D25*
X57221875Y-342565625D02*
X55134375Y-342565625D01*
X55134375Y-342565625D02*
X54300000Y-343400000D01*
D24*
X109978125Y-304343750D02*
X109978125Y-304643750D01*
X110978125Y-305643750D02*
X110978125Y-313643750D01*
X109978125Y-304643750D02*
X110978125Y-305643750D01*
X115332813Y-316832813D02*
X116278125Y-317778125D01*
X114167188Y-316832813D02*
X115332813Y-316832813D01*
X110978125Y-313643750D02*
X114167188Y-316832813D01*
X113718750Y-299703125D02*
X114371875Y-299703125D01*
X114371875Y-299703125D02*
X114371875Y-299950000D01*
X122128125Y-327693750D02*
X132837500Y-327693750D01*
X116278125Y-321843750D02*
X116278125Y-317778125D01*
X122128125Y-327693750D02*
X116278125Y-321843750D01*
X132837500Y-327693750D02*
X133421875Y-328278125D01*
X86515625Y-333040625D02*
X87534375Y-332021875D01*
X76271875Y-333040625D02*
X86515625Y-333040625D01*
X95321875Y-328278125D02*
X95321875Y-328900000D01*
X95321875Y-328900000D02*
X92178125Y-332043750D01*
X97078125Y-326521875D02*
X95321875Y-328278125D01*
X97078125Y-322443750D02*
X97078125Y-326521875D01*
X96178125Y-321543750D02*
X97078125Y-322443750D01*
X96178125Y-316143750D02*
X96178125Y-321543750D01*
X96678125Y-315643750D02*
X96178125Y-316143750D01*
X133421875Y-328278125D02*
X132678125Y-328278125D01*
D26*
X95321875Y-328278125D02*
X95321875Y-328034375D01*
D25*
X57221875Y-342565625D02*
X61340142Y-342565625D01*
X61340142Y-342565625D02*
X62072375Y-341833392D01*
X57221875Y-342565625D02*
X57221875Y-342909375D01*
D26*
X95321875Y-328278125D02*
X95631250Y-328278125D01*
D25*
X62178125Y-326610937D02*
X62445312Y-326610937D01*
X62445312Y-326610937D02*
X62978125Y-327143750D01*
X67500000Y-328499999D02*
X67500000Y-323256250D01*
X66856249Y-329143750D02*
X67500000Y-328499999D01*
X64978125Y-329143750D02*
X66856249Y-329143750D01*
X64378125Y-328543750D02*
X64978125Y-329143750D01*
X63378125Y-328543750D02*
X64378125Y-328543750D01*
X62978125Y-328143750D02*
X63378125Y-328543750D01*
X62978125Y-327143750D02*
X62978125Y-328143750D01*
X57145313Y-326610937D02*
X62178125Y-326610937D01*
X67500000Y-323256250D02*
X68134375Y-322621875D01*
X70746875Y-324190625D02*
X70703125Y-324190625D01*
X70703125Y-324190625D02*
X69134375Y-322621875D01*
X69134375Y-322621875D02*
X68134375Y-322621875D01*
X55734375Y-329221875D02*
X55734375Y-328021875D01*
X55734375Y-328021875D02*
X56934375Y-326821875D01*
X56721875Y-337565625D02*
X56721875Y-335809375D01*
X57145313Y-326610937D02*
X56934375Y-326821875D01*
X55734375Y-334821875D02*
X55734375Y-329221875D01*
X56721875Y-335809375D02*
X55734375Y-334821875D01*
X56078125Y-337565625D02*
X56721875Y-337565625D01*
D24*
X91078125Y-311443750D02*
X93293750Y-309228125D01*
X93293750Y-309228125D02*
X95321875Y-309228125D01*
X84200000Y-321100000D02*
X77090625Y-313990625D01*
X77090625Y-313990625D02*
X76271875Y-313990625D01*
X110978125Y-291343750D02*
X110978125Y-293343750D01*
X110978125Y-291343750D02*
X110978125Y-286743750D01*
X110978125Y-286743750D02*
X114371875Y-283350000D01*
X114371875Y-283350000D02*
X114371875Y-280653125D01*
X110978125Y-293343750D02*
X111778125Y-294143750D01*
X111778125Y-294143750D02*
X111778125Y-300143750D01*
D25*
X77678125Y-336221875D02*
X78000000Y-336221875D01*
X78578125Y-335643750D02*
X88512500Y-335643750D01*
X78000000Y-336221875D02*
X78578125Y-335643750D01*
D24*
X95321875Y-309228125D02*
X93293750Y-309228125D01*
X91378125Y-311143750D02*
X93293750Y-309228125D01*
D25*
X89334375Y-334821875D02*
X88512500Y-335643750D01*
X77678125Y-336221875D02*
X75603488Y-336221875D01*
X75603488Y-336221875D02*
X74093190Y-337732173D01*
D24*
X57221875Y-323515625D02*
X59006250Y-323515625D01*
X60578125Y-315843750D02*
X69146875Y-315843750D01*
X59878125Y-316543750D02*
X60578125Y-315843750D01*
X59878125Y-322643750D02*
X59878125Y-316543750D01*
X59006250Y-323515625D02*
X59878125Y-322643750D01*
X76271875Y-314537500D02*
X76271875Y-313990625D01*
X76478125Y-314196875D02*
X76271875Y-313990625D01*
X57221875Y-323515625D02*
X57221875Y-323134375D01*
X69146875Y-315843750D02*
X70746875Y-317443750D01*
X72818750Y-317443750D02*
X76271875Y-313990625D01*
X70746875Y-317443750D02*
X72818750Y-317443750D01*
D26*
X57221875Y-323515625D02*
X57840625Y-323515625D01*
X76271875Y-314300000D02*
X76271875Y-313990625D01*
D24*
X114371875Y-280653125D02*
X114371875Y-278350000D01*
X116078125Y-263309375D02*
X114371875Y-261603125D01*
X116078125Y-276643750D02*
X116078125Y-263309375D01*
X114371875Y-278350000D02*
X116078125Y-276643750D01*
X55665625Y-311490625D02*
X55665625Y-312256250D01*
X55665625Y-312256250D02*
X55178125Y-312743750D01*
X55178125Y-316971875D02*
X56721875Y-318515625D01*
X55178125Y-312743750D02*
X55178125Y-316971875D01*
X95321875Y-290178125D02*
X92690625Y-290178125D01*
X92690625Y-290178125D02*
X88934375Y-286421875D01*
X57221875Y-305821875D02*
X62821875Y-311421875D01*
X57221875Y-304465625D02*
X57221875Y-305821875D01*
D25*
X63015686Y-333584315D02*
X63015686Y-330215686D01*
X63015686Y-330215686D02*
X63000000Y-330200000D01*
D24*
X63534375Y-277043750D02*
X63534375Y-274387500D01*
X69478125Y-271543750D02*
X71534375Y-273600000D01*
X66378125Y-271543750D02*
X69478125Y-271543750D01*
X63534375Y-274387500D02*
X66378125Y-271543750D01*
X76271875Y-294940625D02*
X76271875Y-293337500D01*
X76271875Y-293337500D02*
X71534375Y-288600000D01*
X71534375Y-288600000D02*
X71534375Y-273600000D01*
X76271875Y-294940625D02*
X76271875Y-292550000D01*
X78900000Y-283021875D02*
X79734375Y-283021875D01*
X77778125Y-284143750D02*
X78900000Y-283021875D01*
X77778125Y-291043750D02*
X77778125Y-284143750D01*
X76271875Y-292550000D02*
X77778125Y-291043750D01*
D25*
X63015686Y-333584315D02*
X64900802Y-335469431D01*
D24*
X76271875Y-294940625D02*
X76271875Y-294684375D01*
X57221875Y-304465625D02*
X57221875Y-303584375D01*
X57221875Y-303584375D02*
X63534375Y-297271875D01*
X63534375Y-297271875D02*
X63534375Y-277043750D01*
D26*
X76271875Y-294940625D02*
X76053125Y-294940625D01*
D24*
X95778125Y-290178125D02*
X95778125Y-287143750D01*
X95321875Y-277387500D02*
X95321875Y-271128125D01*
X96878125Y-278943750D02*
X95321875Y-277387500D01*
X96878125Y-286043750D02*
X96878125Y-278943750D01*
X95778125Y-287143750D02*
X95878125Y-287043750D01*
X95878125Y-287043750D02*
X96878125Y-286043750D01*
X95321875Y-271128125D02*
X95321875Y-268300000D01*
X95321875Y-290178125D02*
X95631250Y-290178125D01*
X95321875Y-271128125D02*
X95631250Y-271128125D01*
D26*
X95321875Y-290178125D02*
X95290625Y-290178125D01*
D24*
X96978125Y-266643750D02*
X96978125Y-259743750D01*
X96978125Y-259743750D02*
X94478125Y-257243750D01*
X94478125Y-257243750D02*
X94478125Y-252378125D01*
X95321875Y-268300000D02*
X96978125Y-266643750D01*
X55665625Y-292440625D02*
X55665625Y-292856250D01*
X55665625Y-292856250D02*
X55178125Y-293343750D01*
X55178125Y-297921875D02*
X56721875Y-299465625D01*
X55178125Y-293343750D02*
X55178125Y-297921875D01*
X55665625Y-273390625D02*
X55331250Y-273390625D01*
X55331250Y-273390625D02*
X54178125Y-274543750D01*
X54178125Y-277871875D02*
X56721875Y-280415625D01*
X54178125Y-274543750D02*
X54178125Y-277871875D01*
X94728125Y-233621875D02*
X95321875Y-233028125D01*
X57221875Y-228265625D02*
X57221875Y-226000000D01*
X57221875Y-215343750D02*
X57221875Y-209215625D01*
X58528125Y-216650000D02*
X57221875Y-215343750D01*
X58528125Y-224693750D02*
X58528125Y-216650000D01*
X57221875Y-226000000D02*
X58528125Y-224693750D01*
X57221875Y-247315625D02*
X59406250Y-247315625D01*
X68931250Y-237790625D02*
X76271875Y-237790625D01*
X59406250Y-247315625D02*
X68931250Y-237790625D01*
X57221875Y-247315625D02*
X57221875Y-244900000D01*
X57221875Y-234043750D02*
X57221875Y-228265625D01*
X58578125Y-235400000D02*
X57221875Y-234043750D01*
X58578125Y-243543750D02*
X58578125Y-235400000D01*
X57221875Y-244900000D02*
X58578125Y-243543750D01*
X76271875Y-237790625D02*
X79965625Y-237790625D01*
X84134375Y-233621875D02*
X94728125Y-233621875D01*
X79965625Y-237790625D02*
X84134375Y-233621875D01*
D26*
X76271875Y-237790625D02*
X76271875Y-238084375D01*
D25*
X56134375Y-340821875D02*
X55334375Y-340821875D01*
X61060857Y-340821875D02*
X61506689Y-341267707D01*
X56134375Y-340821875D02*
X61060857Y-340821875D01*
X55334375Y-340821875D02*
X53334375Y-338821875D01*
X53334375Y-338821875D02*
X53334375Y-251203125D01*
X53334375Y-251203125D02*
X57221875Y-247315625D01*
D24*
X55665625Y-254340625D02*
X55581250Y-254340625D01*
X55581250Y-254340625D02*
X54378125Y-255543750D01*
X54378125Y-259021875D02*
X56721875Y-261365625D01*
X54378125Y-255543750D02*
X54378125Y-259021875D01*
X88178125Y-208793750D02*
X89106250Y-208793750D01*
X89106250Y-208793750D02*
X89828125Y-208071875D01*
X89828125Y-208071875D02*
X89828125Y-203293750D01*
X87578125Y-227843750D02*
X91078125Y-227843750D01*
X84778125Y-226243750D02*
X84778125Y-226043750D01*
X86578125Y-227843750D02*
X87578125Y-227843750D01*
X84778125Y-226043750D02*
X86578125Y-227843750D01*
X84778125Y-211943750D02*
X84778125Y-226243750D01*
X87928125Y-208793750D02*
X88178125Y-208793750D01*
X84778125Y-211943750D02*
X87928125Y-208793750D01*
X91878125Y-227043750D02*
X91878125Y-220043750D01*
X95321875Y-216600000D02*
X95321875Y-213978125D01*
X91878125Y-220043750D02*
X95321875Y-216600000D01*
X91078125Y-227843750D02*
X91878125Y-227043750D01*
X89828125Y-203293750D02*
X86225000Y-199690625D01*
X86225000Y-199690625D02*
X76271875Y-199690625D01*
D25*
X72934375Y-331743750D02*
X72934375Y-330587500D01*
X72934375Y-330587500D02*
X73178125Y-330343750D01*
X72934375Y-333221875D02*
X72934375Y-331743750D01*
X71264763Y-334891487D02*
X72934375Y-333221875D01*
X71264763Y-334903745D02*
X71264763Y-334891487D01*
D24*
X76271875Y-199690625D02*
X76271875Y-198237500D01*
X76271875Y-198237500D02*
X73578125Y-195543750D01*
X73578125Y-195543750D02*
X73578125Y-191743750D01*
X73578125Y-191743750D02*
X72000000Y-190165625D01*
X72000000Y-190165625D02*
X57221875Y-190165625D01*
X76271875Y-218740625D02*
X77890625Y-217121875D01*
X76271875Y-205537500D02*
X76271875Y-199690625D01*
X77890625Y-207156250D02*
X76271875Y-205537500D01*
X77890625Y-217121875D02*
X77890625Y-207156250D01*
D26*
X75628125Y-199690625D02*
X76271875Y-199690625D01*
D24*
X114371875Y-242553125D02*
X114371875Y-241037500D01*
X114371875Y-241037500D02*
X109378125Y-236043750D01*
X109378125Y-236043750D02*
X95678125Y-222343750D01*
X95678125Y-214965625D02*
X95678125Y-222343750D01*
X95321875Y-214609375D02*
X95678125Y-214965625D01*
X95321875Y-213978125D02*
X95321875Y-214609375D01*
X55665625Y-235290625D02*
X56825000Y-235290625D01*
X57478125Y-235943750D02*
X57478125Y-241559375D01*
X56825000Y-235290625D02*
X57478125Y-235943750D01*
X57478125Y-241559375D02*
X56721875Y-242315625D01*
X111200000Y-191200000D02*
X111160938Y-191200000D01*
X111160938Y-191200000D02*
X111200000Y-191200000D01*
X111200000Y-191200000D02*
X111160938Y-191200000D01*
X112000000Y-209800000D02*
X111000000Y-210800000D01*
X112800000Y-209800000D02*
X112000000Y-209800000D01*
X113200000Y-209400000D02*
X112800000Y-209800000D01*
X113200000Y-206200000D02*
X113200000Y-209400000D01*
X111400000Y-204400000D02*
X113200000Y-206200000D01*
X104760938Y-219160937D02*
X107760937Y-219160937D01*
X104478125Y-219443750D02*
X104478125Y-222643750D01*
X104678125Y-222843750D02*
X113712500Y-222843750D01*
X104478125Y-222643750D02*
X104678125Y-222843750D01*
X104478125Y-219443750D02*
X104760938Y-219160937D01*
X111000000Y-211400000D02*
X111000000Y-218000000D01*
X107760937Y-219160937D02*
X108800000Y-220200000D01*
X108800000Y-220200000D02*
X110400000Y-220200000D01*
X110400000Y-220200000D02*
X111000000Y-219600000D01*
X111000000Y-219600000D02*
X111000000Y-218000000D01*
X111000000Y-210800000D02*
X111000000Y-211400000D01*
X111200000Y-204400000D02*
X111400000Y-204400000D01*
X111160938Y-189360937D02*
X111160938Y-191200000D01*
D25*
X87100000Y-334843750D02*
X87856250Y-334843750D01*
X87856250Y-334843750D02*
X89900000Y-332800000D01*
X89900000Y-331187500D02*
X88178125Y-329465625D01*
X89900000Y-332800000D02*
X89900000Y-331187500D01*
X89300000Y-326100000D02*
X88856250Y-326100000D01*
X88856250Y-326100000D02*
X88178125Y-326778125D01*
D24*
X111978125Y-188543750D02*
X111978125Y-186343750D01*
X112918750Y-185403125D02*
X114371875Y-185403125D01*
X111978125Y-186343750D02*
X112918750Y-185403125D01*
X109328125Y-191193750D02*
X110160938Y-190360937D01*
X110160938Y-190360937D02*
X111160938Y-189360937D01*
X111160938Y-189360937D02*
X111978125Y-188543750D01*
X109328125Y-191193750D02*
X108210938Y-192310937D01*
X108210938Y-192310937D02*
X106878125Y-193643750D01*
X106878125Y-193643750D02*
X106878125Y-193743750D01*
X95321875Y-194928125D02*
X95393750Y-194928125D01*
X95393750Y-194928125D02*
X96578125Y-193743750D01*
X96578125Y-193743750D02*
X106878125Y-193743750D01*
D25*
X77278125Y-335421875D02*
X77700000Y-335421875D01*
X78278125Y-334843750D02*
X87100000Y-334843750D01*
X77700000Y-335421875D02*
X78278125Y-334843750D01*
X87856250Y-334843750D02*
X89834375Y-332865625D01*
X88178125Y-326778125D02*
X88178125Y-329465625D01*
X77278125Y-335421875D02*
X75272117Y-335421875D01*
X75272117Y-335421875D02*
X73527505Y-337166487D01*
D24*
X95321875Y-194928125D02*
X95321875Y-194687500D01*
X95321875Y-194687500D02*
X94478125Y-193843750D01*
X78075000Y-180640625D02*
X76271875Y-180640625D01*
X79078125Y-181643750D02*
X78075000Y-180640625D01*
X79078125Y-187143750D02*
X79078125Y-181643750D01*
X85778125Y-193843750D02*
X79078125Y-187143750D01*
X94478125Y-193843750D02*
X85778125Y-193843750D01*
X115537500Y-223503125D02*
X122278125Y-230243750D01*
X114371875Y-223503125D02*
X115537500Y-223503125D01*
X76271875Y-180640625D02*
X72915625Y-180640625D01*
X57221875Y-175109375D02*
X57221875Y-171115625D01*
X65934375Y-183821875D02*
X57221875Y-175109375D01*
X69734375Y-183821875D02*
X65934375Y-183821875D01*
X72915625Y-180640625D02*
X69734375Y-183821875D01*
D26*
X57221875Y-171759375D02*
X57221875Y-171115625D01*
D24*
X113712500Y-222843750D02*
X114371875Y-223503125D01*
X114371875Y-223503125D02*
X114371875Y-224259375D01*
X55665625Y-216240625D02*
X56275000Y-216240625D01*
X56275000Y-216240625D02*
X57378125Y-217343750D01*
X57378125Y-217343750D02*
X57378125Y-222609375D01*
X57378125Y-222609375D02*
X56721875Y-223265625D01*
X114371875Y-204453125D02*
X114371875Y-210571875D01*
X115221875Y-211421875D02*
X119134375Y-211421875D01*
X114371875Y-210571875D02*
X115221875Y-211421875D01*
X57221875Y-152065625D02*
X57221875Y-154121875D01*
X76271875Y-160871875D02*
X76271875Y-161590625D01*
X73100000Y-157700000D02*
X76271875Y-160871875D01*
X70700000Y-157700000D02*
X73100000Y-157700000D01*
X69800000Y-156800000D02*
X70700000Y-157700000D01*
X61600000Y-158500000D02*
X65600000Y-158500000D01*
X57221875Y-154121875D02*
X61600000Y-158500000D01*
D25*
X89700000Y-324400000D02*
X89156250Y-324400000D01*
X77278125Y-334621875D02*
X77900000Y-334000000D01*
X87300000Y-334000000D02*
X88700000Y-332600000D01*
X77900000Y-334000000D02*
X87300000Y-334000000D01*
X74940746Y-334621875D02*
X72961819Y-336600802D01*
X76300000Y-334621875D02*
X74940746Y-334621875D01*
X88700000Y-332600000D02*
X88700000Y-331187500D01*
X88700000Y-331187500D02*
X87378125Y-329865625D01*
X87378125Y-329865625D02*
X87378125Y-326178125D01*
X76300000Y-334621875D02*
X77278125Y-334621875D01*
X89156250Y-324400000D02*
X87378125Y-326178125D01*
D24*
X95321875Y-175878125D02*
X95321875Y-181787500D01*
X96778125Y-183243750D02*
X96778125Y-192428125D01*
X95321875Y-181787500D02*
X96778125Y-183243750D01*
X104578125Y-192428125D02*
X106465625Y-192428125D01*
X106465625Y-192428125D02*
X110037500Y-188856250D01*
X110037500Y-188856250D02*
X110037500Y-188784375D01*
X110037500Y-188784375D02*
X110878125Y-187943750D01*
X110878125Y-187943750D02*
X110878125Y-169846875D01*
X110878125Y-169846875D02*
X114371875Y-166353125D01*
X80271875Y-181543750D02*
X80271875Y-181137500D01*
X86225000Y-192428125D02*
X80271875Y-186475000D01*
X80271875Y-186475000D02*
X80271875Y-181543750D01*
X96778125Y-192428125D02*
X86225000Y-192428125D01*
X80271875Y-181137500D02*
X77878125Y-178743750D01*
X77878125Y-178743750D02*
X77878125Y-174643750D01*
X77878125Y-174643750D02*
X76678125Y-173443750D01*
X76678125Y-173443750D02*
X76678125Y-161996875D01*
X76678125Y-161996875D02*
X76271875Y-161590625D01*
X104578125Y-192428125D02*
X96778125Y-192428125D01*
D25*
X72961819Y-336600802D02*
X72961819Y-336594431D01*
D26*
X57578125Y-152065625D02*
X57768750Y-152065625D01*
D24*
X55665625Y-197190625D02*
X54131250Y-197190625D01*
X54450000Y-204215625D02*
X56721875Y-204215625D01*
X53478125Y-203243750D02*
X54450000Y-204215625D01*
X53478125Y-197843750D02*
X53478125Y-203243750D01*
X54131250Y-197190625D02*
X53478125Y-197843750D01*
X93765625Y-335303125D02*
X93765625Y-341271875D01*
X93765625Y-341271875D02*
X94821875Y-342328125D01*
X112815625Y-249578125D02*
X112815625Y-255546875D01*
X112815625Y-255546875D02*
X113871875Y-256603125D01*
X112815625Y-287678125D02*
X112815625Y-288406250D01*
X112815625Y-288406250D02*
X112278125Y-288943750D01*
X112278125Y-293109375D02*
X113871875Y-294703125D01*
X112278125Y-288943750D02*
X112278125Y-293109375D01*
X93765625Y-297203125D02*
X92518750Y-297203125D01*
X91462500Y-304228125D02*
X94821875Y-304228125D01*
X89378125Y-302143750D02*
X91462500Y-304228125D01*
X89378125Y-300343750D02*
X89378125Y-302143750D01*
X92518750Y-297203125D02*
X89378125Y-300343750D01*
X74715625Y-301965625D02*
X74715625Y-303306250D01*
X74525000Y-308990625D02*
X75771875Y-308990625D01*
X73578125Y-308043750D02*
X74525000Y-308990625D01*
X73578125Y-304443750D02*
X73578125Y-308043750D01*
X74715625Y-303306250D02*
X73578125Y-304443750D01*
X93765625Y-278153125D02*
X94387500Y-278153125D01*
X94387500Y-278153125D02*
X95778125Y-279543750D01*
X95778125Y-279543750D02*
X95778125Y-284621875D01*
X95378125Y-284621875D02*
X94821875Y-285178125D01*
X93765625Y-259103125D02*
X94437500Y-259103125D01*
X94437500Y-259103125D02*
X95678125Y-260343750D01*
X95678125Y-260343750D02*
X95678125Y-265271875D01*
X95678125Y-265271875D02*
X94821875Y-266128125D01*
X93765625Y-240053125D02*
X93765625Y-246021875D01*
X93765625Y-246021875D02*
X94821875Y-247078125D01*
X75771875Y-213740625D02*
X75771875Y-213150000D01*
X75771875Y-213150000D02*
X76778125Y-212143750D01*
X75750000Y-206715625D02*
X74715625Y-206715625D01*
X76778125Y-207743750D02*
X75750000Y-206715625D01*
X76778125Y-212143750D02*
X76778125Y-207743750D01*
X93765625Y-221003125D02*
X93765625Y-221256250D01*
X93765625Y-221256250D02*
X93178125Y-221843750D01*
X93178125Y-226384375D02*
X94821875Y-228028125D01*
X93178125Y-221843750D02*
X93178125Y-226384375D01*
X112815625Y-230528125D02*
X112815625Y-236496875D01*
X112815625Y-236496875D02*
X113871875Y-237553125D01*
X78278125Y-346443750D02*
X76418750Y-346443750D01*
X76418750Y-346443750D02*
X75771875Y-347090625D01*
X87678125Y-346443750D02*
X89796875Y-344325000D01*
X78278125Y-346443750D02*
X87678125Y-346443750D01*
X89796875Y-344325000D02*
X89796875Y-340859375D01*
X76403125Y-347090625D02*
X75771875Y-347090625D01*
X75771875Y-289940625D02*
X75771875Y-289650000D01*
X75771875Y-289650000D02*
X76578125Y-288843750D01*
X76578125Y-284778125D02*
X74715625Y-282915625D01*
X76578125Y-288843750D02*
X76578125Y-284778125D01*
X94821875Y-323278125D02*
X94821875Y-317309375D01*
X94821875Y-317309375D02*
X93765625Y-316253125D01*
X75771875Y-270890625D02*
X75931250Y-270890625D01*
X75931250Y-270890625D02*
X76778125Y-270043750D01*
X76778125Y-265043750D02*
X75600000Y-263865625D01*
X76778125Y-270043750D02*
X76778125Y-265043750D01*
X75600000Y-263865625D02*
X74715625Y-263865625D01*
X74715625Y-225765625D02*
X74715625Y-226106250D01*
X74715625Y-226106250D02*
X73878125Y-226943750D01*
X73878125Y-231943750D02*
X74725000Y-232790625D01*
X73878125Y-226943750D02*
X73878125Y-231943750D01*
X74725000Y-232790625D02*
X75771875Y-232790625D01*
X112815625Y-268628125D02*
X113462500Y-268628125D01*
X113462500Y-268628125D02*
X114778125Y-269943750D01*
X114778125Y-274746875D02*
X113871875Y-275653125D01*
X114778125Y-269943750D02*
X114778125Y-274746875D01*
X113871875Y-275653125D02*
X113871875Y-274850000D01*
X75771875Y-328040625D02*
X74475000Y-328040625D01*
X73578125Y-323443750D02*
X74715625Y-322306250D01*
X73578125Y-327143750D02*
X73578125Y-323443750D01*
X74475000Y-328040625D02*
X73578125Y-327143750D01*
X74715625Y-321015625D02*
X74715625Y-322306250D01*
X113871875Y-313753125D02*
X113787500Y-313753125D01*
X113187500Y-314153125D02*
X112278125Y-313243750D01*
X112278125Y-313243750D02*
X112278125Y-307265625D01*
X112278125Y-307265625D02*
X112815625Y-306728125D01*
X113871875Y-313753125D02*
X113871875Y-313450000D01*
X74715625Y-244815625D02*
X74715625Y-250784375D01*
X74715625Y-250784375D02*
X75771875Y-251840625D01*
X113871875Y-332803125D02*
X113871875Y-326834375D01*
X113871875Y-326834375D02*
X112815625Y-325778125D01*
X131865625Y-340065625D02*
X131865625Y-339456250D01*
X131865625Y-339456250D02*
X130578125Y-340743750D01*
X131225000Y-347090625D02*
X132921875Y-347090625D01*
X130578125Y-346443750D02*
X131225000Y-347090625D01*
X130578125Y-340743750D02*
X130578125Y-346443750D01*
D25*
X57134375Y-333071875D02*
X58990625Y-333071875D01*
X58990625Y-333071875D02*
X59231250Y-332831250D01*
X58990625Y-333071875D02*
X59231250Y-332831250D01*
X59231250Y-332831250D02*
X59231250Y-334118750D01*
X61390504Y-334221875D02*
X63769431Y-336600802D01*
X59334375Y-334221875D02*
X61390504Y-334221875D01*
X59231250Y-334118750D02*
X59334375Y-334221875D01*
X59231250Y-332831250D02*
X59231250Y-333312500D01*
X60762621Y-348800000D02*
X64900802Y-344661819D01*
X60300000Y-348800000D02*
X60762621Y-348800000D01*
X60000000Y-349100000D02*
X60300000Y-348800000D01*
X58884375Y-328021875D02*
X57278125Y-328021875D01*
X57278125Y-328021875D02*
X56700000Y-328600000D01*
X57134375Y-330571875D02*
X57134375Y-329034375D01*
X57134375Y-329034375D02*
X56700000Y-328600000D01*
X53500000Y-348000000D02*
X54600000Y-348000000D01*
X55378125Y-347221875D02*
X57384375Y-347221875D01*
X54600000Y-348000000D02*
X55378125Y-347221875D01*
X51696875Y-347990625D02*
X53490625Y-347990625D01*
X53490625Y-347990625D02*
X53500000Y-348000000D01*
X64900802Y-344699198D02*
X64900802Y-344661819D01*
X75630171Y-342804688D02*
X74658875Y-341833392D01*
X76860938Y-342804688D02*
X75630171Y-342804688D01*
X76878125Y-342821875D02*
X76860938Y-342804688D01*
X81384375Y-341021875D02*
X82578125Y-341021875D01*
X82578125Y-341021875D02*
X83700000Y-339900000D01*
X81484375Y-339021875D02*
X82821875Y-339021875D01*
X82821875Y-339021875D02*
X83700000Y-339900000D01*
X65334375Y-352771875D02*
X67906250Y-352771875D01*
X67906250Y-352771875D02*
X68878125Y-353743750D01*
X71934375Y-352871875D02*
X72706250Y-352871875D01*
X72978125Y-353143750D02*
X72978125Y-354943750D01*
X72706250Y-352871875D02*
X72978125Y-353143750D01*
X60656250Y-335221875D02*
X61134375Y-335221875D01*
X64860056Y-344661819D02*
X64900802Y-344661819D01*
X71539063Y-347304688D02*
X71017188Y-347304688D01*
X71578125Y-347343750D02*
X71539063Y-347304688D01*
X61784375Y-317521875D02*
X61784375Y-319337500D01*
X61784375Y-319337500D02*
X61778125Y-319343750D01*
X68956250Y-317521875D02*
X69678125Y-318243750D01*
X68084375Y-317521875D02*
X68956250Y-317521875D01*
X64894431Y-344661819D02*
X64900802Y-344661819D01*
X74658875Y-341946375D02*
X74658875Y-341833392D01*
X71017188Y-347304688D02*
X70133392Y-346420892D01*
X70133392Y-346420892D02*
X70133392Y-346358875D01*
X61134375Y-335221875D02*
X63078987Y-337166487D01*
X63078987Y-337166487D02*
X63203745Y-337166487D01*
X68734375Y-332221875D02*
X69567707Y-333055207D01*
X69534375Y-327571875D02*
X69534375Y-326021875D01*
X69567707Y-333206689D02*
X69567707Y-333055207D01*
X81384375Y-339121875D02*
X81484375Y-339021875D01*
X71834375Y-352771875D02*
X71934375Y-352871875D01*
X70133392Y-346358875D02*
X70133392Y-346320892D01*
X68084375Y-317521875D02*
X68084375Y-317771875D01*
X63203745Y-337166487D02*
X63278987Y-337166487D01*
X57384375Y-347221875D02*
X57384375Y-345521875D01*
X61784375Y-317521875D02*
X68084375Y-317521875D01*
X59231250Y-330631250D02*
X59231250Y-327968750D01*
X59231250Y-327968750D02*
X58884375Y-327621875D01*
X59171875Y-330571875D02*
X59231250Y-330631250D01*
X60831250Y-332831250D02*
X60831250Y-332518750D01*
X60831250Y-332518750D02*
X59231250Y-330918750D01*
X59231250Y-330918750D02*
X59231250Y-330631250D01*
X60831250Y-330631250D02*
X60831250Y-328175000D01*
X60831250Y-328175000D02*
X61384375Y-327621875D01*
X60831250Y-330631250D02*
X61943750Y-330631250D01*
X62134375Y-333834375D02*
X64335116Y-336035116D01*
X62134375Y-330821875D02*
X62134375Y-333834375D01*
X61943750Y-330631250D02*
X62134375Y-330821875D01*
X60831250Y-330631250D02*
X61312500Y-330631250D01*
X75224561Y-341267707D02*
X75254168Y-341267707D01*
X75254168Y-341267707D02*
X75500000Y-341021875D01*
X75500000Y-341021875D02*
X78884375Y-341021875D01*
X70133392Y-333772375D02*
X70183875Y-333772375D01*
X70183875Y-333772375D02*
X71334375Y-332621875D01*
X70584375Y-330071875D02*
X69534375Y-330071875D01*
X71334375Y-330821875D02*
X70584375Y-330071875D01*
X71334375Y-332621875D02*
X71334375Y-330821875D01*
X59134375Y-336471875D02*
X61377762Y-336471875D01*
X61377762Y-336471875D02*
X62638060Y-337732173D01*
X69534375Y-330071875D02*
X69484375Y-330071875D01*
X75224561Y-341267707D02*
X75224561Y-341312061D01*
X65579781Y-350467281D02*
X65379781Y-350467281D01*
X66597858Y-346358875D02*
X66597858Y-346358392D01*
X66597858Y-346358392D02*
X69734375Y-343221875D01*
X69734375Y-343221875D02*
X69734375Y-340221875D01*
X63769431Y-343530448D02*
X63825802Y-343530448D01*
X63825802Y-343530448D02*
X67134375Y-340221875D01*
X70133392Y-333772375D02*
X70133392Y-333822858D01*
X70133392Y-333822858D02*
X69134375Y-334821875D01*
X69134375Y-334821875D02*
X68334375Y-335621875D01*
X68334375Y-335621875D02*
X68334375Y-340221875D01*
X62638060Y-337732173D02*
X62644673Y-337732173D01*
X62644673Y-337732173D02*
X65134375Y-340221875D01*
X74178729Y-340221875D02*
X75224561Y-341267707D01*
X65134375Y-340221875D02*
X67134375Y-340221875D01*
X67134375Y-340221875D02*
X68334375Y-340221875D01*
X68334375Y-340221875D02*
X69734375Y-340221875D01*
X69734375Y-340221875D02*
X74178729Y-340221875D01*
X65534375Y-350071875D02*
X71634375Y-350071875D01*
X71634375Y-350071875D02*
X71934375Y-350371875D01*
X71634375Y-350071875D02*
X71934375Y-350371875D01*
X59884375Y-345521875D02*
X61778004Y-345521875D01*
X61778004Y-345521875D02*
X63769431Y-343530448D01*
X51696875Y-351190625D02*
X52503125Y-351190625D01*
X63684375Y-350071875D02*
X65534375Y-350071875D01*
X60934375Y-352821875D02*
X63684375Y-350071875D01*
X54134375Y-352821875D02*
X60934375Y-352821875D01*
X52503125Y-351190625D02*
X54134375Y-352821875D01*
X71934375Y-350371875D02*
X71934375Y-349291229D01*
X71934375Y-349291229D02*
X69567707Y-346924561D01*
X65534375Y-350071875D02*
X65534375Y-347422358D01*
X65534375Y-347422358D02*
X66597858Y-346358875D01*
X59884375Y-347221875D02*
X61209375Y-347221875D01*
X61209375Y-347221875D02*
X64335116Y-344096134D01*
D24*
X93765625Y-354353125D02*
X92968750Y-354353125D01*
X92968750Y-354353125D02*
X90678125Y-356643750D01*
X91412500Y-361378125D02*
X94821875Y-361378125D01*
X90678125Y-360643750D02*
X91412500Y-361378125D01*
X90678125Y-356643750D02*
X90678125Y-360643750D01*
D25*
X67900000Y-331300000D02*
X67900000Y-331100000D01*
X68300000Y-324021875D02*
X68578125Y-323743750D01*
X68300000Y-330700000D02*
X68300000Y-324021875D01*
X67900000Y-331100000D02*
X68300000Y-330700000D01*
X67400000Y-332900000D02*
X67400000Y-331800000D01*
X67400000Y-331800000D02*
X67900000Y-331300000D01*
X67163543Y-333136457D02*
X67400000Y-332900000D01*
X67163543Y-333206689D02*
X67163543Y-333136457D01*
X69678125Y-352343750D02*
X70746875Y-353412500D01*
X70746875Y-353412500D02*
X70746875Y-355543750D01*
X70746875Y-355543750D02*
X70746875Y-355012500D01*
D24*
X68365625Y-292440625D02*
X68365625Y-304856250D01*
X68365625Y-308431250D02*
X68365625Y-311490625D01*
X67878125Y-307943750D02*
X68365625Y-308431250D01*
X67878125Y-305343750D02*
X67878125Y-307943750D01*
X68365625Y-304856250D02*
X67878125Y-305343750D01*
X70746875Y-311490625D02*
X70746875Y-313375000D01*
X70746875Y-313375000D02*
X69578125Y-314543750D01*
D25*
X70746875Y-355512500D02*
X70746875Y-355543750D01*
D24*
X68365625Y-311490625D02*
X68365625Y-310531250D01*
X68365625Y-311490625D02*
X70746875Y-311490625D01*
X68365625Y-273390625D02*
X68365625Y-292440625D01*
X74715625Y-359115625D02*
X74715625Y-365084375D01*
X74715625Y-365084375D02*
X75771875Y-366140625D01*
X74715625Y-359115625D02*
X74606250Y-359115625D01*
X106131250Y-335637500D02*
X107100000Y-334668750D01*
X107100000Y-334668750D02*
X107100000Y-316887500D01*
X107100000Y-316887500D02*
X106465625Y-316253125D01*
D25*
X78334375Y-344621875D02*
X85700000Y-344621875D01*
X78334375Y-344621875D02*
X74053246Y-344621875D01*
X74053246Y-344621875D02*
X72961819Y-343530448D01*
X85700000Y-344621875D02*
X87278125Y-343043750D01*
X72961819Y-343649319D02*
X72961819Y-343530448D01*
D24*
X106465625Y-297203125D02*
X106465625Y-278153125D01*
X106465625Y-335303125D02*
X106465625Y-334756250D01*
X106978125Y-316765625D02*
X106465625Y-316253125D01*
X106465625Y-354353125D02*
X106465625Y-353856250D01*
X106465625Y-353856250D02*
X107100000Y-353221875D01*
X107100000Y-353221875D02*
X107100000Y-335937500D01*
X107100000Y-335937500D02*
X106465625Y-335303125D01*
X87415625Y-263865625D02*
X87415625Y-262606250D01*
X94500000Y-250021875D02*
X99765624Y-250021875D01*
X99765624Y-250021875D02*
X101703125Y-251959376D01*
X101703125Y-251959376D02*
X101703125Y-273390625D01*
X101703125Y-273390625D02*
X106465625Y-278153125D01*
X87415625Y-262606250D02*
X93178125Y-256843750D01*
X93178125Y-256843750D02*
X93178125Y-251343750D01*
X93178125Y-251343750D02*
X94500000Y-250021875D01*
X106465625Y-297203125D02*
X106465625Y-316253125D01*
D26*
X106465625Y-278153125D02*
X106403125Y-278153125D01*
D25*
X87478125Y-339143750D02*
X87478125Y-341243750D01*
X87478125Y-341243750D02*
X84900000Y-343821875D01*
X84900000Y-343821875D02*
X74384617Y-343821875D01*
X74384617Y-343821875D02*
X73527505Y-342964763D01*
X80134375Y-343821875D02*
X84900000Y-343821875D01*
X80134375Y-343821875D02*
X77934375Y-343821875D01*
D24*
X106465625Y-259103125D02*
X111618750Y-259103125D01*
X115431250Y-258543750D02*
X125515625Y-268628125D01*
X112178125Y-258543750D02*
X115431250Y-258543750D01*
X111618750Y-259103125D02*
X112178125Y-258543750D01*
X125515625Y-287678125D02*
X125515625Y-268628125D01*
X125515625Y-306728125D02*
X125515625Y-287678125D01*
X125515625Y-325778125D02*
X125515625Y-306728125D01*
D25*
X74384617Y-343821875D02*
X73527505Y-342964763D01*
X77934375Y-343821875D02*
X74384617Y-343821875D01*
X77934375Y-343821875D02*
X77934375Y-343821875D01*
D24*
X106465625Y-259103125D02*
X107418750Y-259103125D01*
X87415625Y-244815625D02*
X87415625Y-242740625D01*
X106465625Y-249753125D02*
X106465625Y-259103125D01*
X94934375Y-238221875D02*
X106465625Y-249753125D01*
X91934375Y-238221875D02*
X94934375Y-238221875D01*
X87415625Y-242740625D02*
X91934375Y-238221875D01*
X106796875Y-259434375D02*
X106465625Y-259103125D01*
X125515625Y-249578125D02*
X125515625Y-249006250D01*
X125515625Y-249006250D02*
X126578125Y-247943750D01*
X134825000Y-235290625D02*
X144565625Y-235290625D01*
X132878125Y-233343750D02*
X134825000Y-235290625D01*
X130978125Y-233343750D02*
X132878125Y-233343750D01*
X129878125Y-234443750D02*
X130978125Y-233343750D01*
X129878125Y-235343750D02*
X129878125Y-234443750D01*
X126578125Y-238643750D02*
X129878125Y-235343750D01*
X126578125Y-247943750D02*
X126578125Y-238643750D01*
X109478125Y-245243750D02*
X120578124Y-245243750D01*
X120578124Y-245243750D02*
X125114062Y-249779688D01*
X106465625Y-240053125D02*
X106465625Y-242231250D01*
X106465625Y-242231250D02*
X109478125Y-245243750D01*
X125515625Y-349590625D02*
X126231250Y-349590625D01*
X135300000Y-340065625D02*
X144565625Y-340065625D01*
X133578125Y-338343750D02*
X135300000Y-340065625D01*
X131178125Y-338343750D02*
X133578125Y-338343750D01*
X129378125Y-340143750D02*
X131178125Y-338343750D01*
X129378125Y-346443750D02*
X129378125Y-340143750D01*
X126231250Y-349590625D02*
X129378125Y-346443750D01*
D25*
X76934375Y-345421875D02*
X86300000Y-345421875D01*
X86300000Y-345421875D02*
X87278125Y-344443750D01*
D24*
X144565625Y-316253125D02*
X144565625Y-235290625D01*
X144565625Y-316253125D02*
X144565625Y-340065625D01*
D25*
X76934375Y-345421875D02*
X73721875Y-345421875D01*
X73721875Y-345421875D02*
X72396134Y-344096134D01*
X72408634Y-344096134D02*
X72396134Y-344096134D01*
D24*
X127878125Y-239278125D02*
X131865625Y-235290625D01*
X132921875Y-251840625D02*
X131675000Y-251840625D01*
X127878125Y-249443750D02*
X127878125Y-239278125D01*
X128678125Y-250243750D02*
X127878125Y-249443750D01*
X130078125Y-250243750D02*
X128678125Y-250243750D01*
X131675000Y-251840625D02*
X130078125Y-250243750D01*
D26*
X132183125Y-251959375D02*
X132341875Y-251800625D01*
D24*
X114371875Y-361615625D02*
X114371875Y-360750000D01*
X114371875Y-360750000D02*
X116078125Y-359043750D01*
X116078125Y-339509375D02*
X114371875Y-337803125D01*
X116078125Y-359043750D02*
X116078125Y-339509375D01*
D25*
X79734375Y-359021875D02*
X79456250Y-359021875D01*
X77934375Y-357500000D02*
X77934375Y-356821875D01*
X79456250Y-359021875D02*
X77934375Y-357500000D01*
D24*
X73478125Y-366843750D02*
X73478125Y-361443750D01*
X73478125Y-361443750D02*
X73078125Y-361043750D01*
X76271875Y-371140625D02*
X76271875Y-369637500D01*
X76271875Y-369637500D02*
X73478125Y-366843750D01*
X76271875Y-371140625D02*
X76271875Y-370437500D01*
D25*
X77934375Y-350821875D02*
X77356250Y-350243750D01*
X77356250Y-350243750D02*
X76156250Y-350243750D01*
X76156250Y-350243750D02*
X73734375Y-347821875D01*
X73734375Y-347821875D02*
X73734375Y-346565746D01*
X73734375Y-346565746D02*
X71830448Y-344661819D01*
X77934375Y-356821875D02*
X77934375Y-350821875D01*
D24*
X114371875Y-361615625D02*
X114371875Y-361584375D01*
X95321875Y-366378125D02*
X109609375Y-366378125D01*
X109609375Y-366378125D02*
X114371875Y-361615625D01*
X76271875Y-371140625D02*
X82534375Y-371140625D01*
X82534375Y-371140625D02*
X87296875Y-366378125D01*
X87296875Y-366378125D02*
X95321875Y-366378125D01*
X76271875Y-371140625D02*
X75853125Y-371140625D01*
D25*
X76271875Y-371140625D02*
X76271875Y-370259375D01*
D26*
X95203125Y-366259375D02*
X95321875Y-366378125D01*
D25*
X51696875Y-350390625D02*
X52903125Y-350390625D01*
X53934375Y-351421875D02*
X55184375Y-351421875D01*
X52903125Y-350390625D02*
X53934375Y-351421875D01*
X51696875Y-349590625D02*
X55153125Y-349590625D01*
X55153125Y-349590625D02*
X55184375Y-349621875D01*
X59134375Y-338771875D02*
X59884375Y-338771875D01*
X61196392Y-337421875D02*
X62072375Y-338297858D01*
X60534375Y-337421875D02*
X61196392Y-337421875D01*
X60134375Y-337821875D02*
X60534375Y-337421875D01*
X60134375Y-338521875D02*
X60134375Y-337821875D01*
X59884375Y-338771875D02*
X60134375Y-338521875D01*
X61784375Y-321321875D02*
X61784375Y-322137499D01*
X54934375Y-338021875D02*
X56084375Y-339171875D01*
X54934375Y-327621875D02*
X54934375Y-338021875D01*
X56912500Y-325643750D02*
X54934375Y-327621875D01*
X58278124Y-325643750D02*
X56912500Y-325643750D01*
X61784375Y-322137499D02*
X58278124Y-325643750D01*
X59534375Y-339171875D02*
X56084375Y-339171875D01*
X59134375Y-339171875D02*
X59134375Y-339071875D01*
X62072375Y-338159875D02*
X62072375Y-338297858D01*
X78784375Y-339021875D02*
X78784375Y-338071875D01*
X76266229Y-337821875D02*
X75224561Y-338863543D01*
X78534375Y-337821875D02*
X76266229Y-337821875D01*
X78784375Y-338071875D02*
X78534375Y-337821875D01*
X77478125Y-337021875D02*
X78300000Y-337021875D01*
X78878125Y-336443750D02*
X89512500Y-336443750D01*
X78300000Y-337021875D02*
X78878125Y-336443750D01*
D24*
X87415625Y-359115625D02*
X87415625Y-358506250D01*
X87415625Y-358506250D02*
X88378125Y-357543750D01*
X88378125Y-357543750D02*
X88378125Y-355343749D01*
D25*
X89512500Y-336443750D02*
X90987500Y-334968750D01*
D24*
X87415625Y-321015625D02*
X89528125Y-321015625D01*
X89528125Y-321015625D02*
X90834375Y-322321875D01*
X90834375Y-322321875D02*
X90834375Y-327121875D01*
X90834375Y-327121875D02*
X89796875Y-328159375D01*
X87415625Y-301965625D02*
X87415625Y-321015625D01*
X88378125Y-355343749D02*
X92534375Y-351187499D01*
X92534375Y-351187499D02*
X92534375Y-336900001D01*
X92534375Y-336900001D02*
X90987500Y-335353126D01*
X90987500Y-335353126D02*
X90987500Y-334968750D01*
X90987500Y-334968750D02*
X90987500Y-330075000D01*
X90987500Y-330075000D02*
X89796875Y-328884375D01*
X89796875Y-328884375D02*
X89796875Y-328159375D01*
X87415625Y-301965625D02*
X87415625Y-300775000D01*
X83843750Y-286487500D02*
X87415625Y-282915625D01*
X83843750Y-297203125D02*
X83843750Y-286487500D01*
X87415625Y-300775000D02*
X83843750Y-297203125D01*
D26*
X81462500Y-257821875D02*
X81462500Y-256150000D01*
X81462500Y-272200000D02*
X87415625Y-278153125D01*
X87415625Y-278153125D02*
X87415625Y-282915625D01*
X81462500Y-257821875D02*
X81462500Y-272200000D01*
X81462500Y-256150000D02*
X79356250Y-254043750D01*
X79356250Y-254043750D02*
X68662500Y-254043750D01*
X68662500Y-254043750D02*
X68365625Y-254340625D01*
D25*
X75934858Y-337021875D02*
X77478125Y-337021875D01*
X75934858Y-337021875D02*
X74658875Y-338297858D01*
D24*
X57221875Y-266365625D02*
X66356250Y-266365625D01*
X66356250Y-266365625D02*
X75881250Y-256840625D01*
X75881250Y-256840625D02*
X76271875Y-256840625D01*
X77998438Y-274164062D02*
X77998438Y-264464063D01*
X76271875Y-262737500D02*
X76271875Y-256840625D01*
X77998438Y-264464063D02*
X76271875Y-262737500D01*
X123578125Y-251543750D02*
X129378125Y-251543750D01*
X133421875Y-255587500D02*
X133421875Y-256840625D01*
X129378125Y-251543750D02*
X133421875Y-255587500D01*
X119978125Y-246343750D02*
X108978125Y-246343750D01*
X98656250Y-236021875D02*
X96534375Y-236021875D01*
X108978125Y-246343750D02*
X98656250Y-236021875D01*
X123478125Y-251443750D02*
X123578125Y-251543750D01*
X123478125Y-249843750D02*
X123478125Y-251443750D01*
X119978125Y-246343750D02*
X123478125Y-249843750D01*
X57221875Y-285415625D02*
X57540625Y-285415625D01*
X57540625Y-285415625D02*
X60534375Y-282421875D01*
X60534375Y-269678125D02*
X57221875Y-266365625D01*
X60534375Y-282421875D02*
X60534375Y-269678125D01*
X76271875Y-275890625D02*
X77998438Y-274164062D01*
X57221875Y-266365625D02*
X57390625Y-266365625D01*
X57390625Y-266365625D02*
X61734375Y-262021875D01*
X88534375Y-236021875D02*
X96534375Y-236021875D01*
X83134375Y-241421875D02*
X88534375Y-236021875D01*
X69334375Y-241421875D02*
X83134375Y-241421875D01*
X61734375Y-249021875D02*
X69334375Y-241421875D01*
X61734375Y-262021875D02*
X61734375Y-249021875D01*
D25*
X57221875Y-285415625D02*
X57221875Y-287334375D01*
X60348357Y-340021875D02*
X61506689Y-338863543D01*
X55734375Y-340021875D02*
X60348357Y-340021875D01*
X54134375Y-338421875D02*
X55734375Y-340021875D01*
X54134375Y-327221875D02*
X54134375Y-338421875D01*
X54134375Y-327221875D02*
X54134375Y-327221875D01*
X54134375Y-290421875D02*
X54134375Y-327221875D01*
X57221875Y-287334375D02*
X54134375Y-290421875D01*
X57221875Y-285415625D02*
X57140625Y-285415625D01*
D24*
X93765625Y-144803125D02*
X93765625Y-144331250D01*
X93765625Y-144331250D02*
X95578125Y-146143750D01*
X95578125Y-146143750D02*
X95578125Y-151071875D01*
X95578125Y-151071875D02*
X94821875Y-151828125D01*
X112815625Y-192428125D02*
X112815625Y-198396875D01*
X112815625Y-198396875D02*
X113871875Y-199453125D01*
X56721875Y-166115625D02*
X56721875Y-160146875D01*
X56721875Y-160146875D02*
X55665625Y-159090625D01*
X112815625Y-173378125D02*
X112815625Y-173806250D01*
X112815625Y-173806250D02*
X112178125Y-174443750D01*
X112178125Y-179843750D02*
X112737500Y-180403125D01*
X112178125Y-174443750D02*
X112178125Y-179843750D01*
X112737500Y-180403125D02*
X113871875Y-180403125D01*
X112815625Y-154328125D02*
X112815625Y-160296875D01*
X112815625Y-160296875D02*
X113871875Y-161353125D01*
X55665625Y-178140625D02*
X55665625Y-178756250D01*
X55665625Y-178756250D02*
X54978125Y-179443750D01*
X54978125Y-184543750D02*
X55600000Y-185165625D01*
X54978125Y-179443750D02*
X54978125Y-184543750D01*
X55600000Y-185165625D02*
X56721875Y-185165625D01*
X93765625Y-163853125D02*
X93765625Y-169821875D01*
X93765625Y-169821875D02*
X94821875Y-170878125D01*
X55665625Y-140040625D02*
X54681250Y-140040625D01*
X54681250Y-140040625D02*
X53378125Y-141343750D01*
X54900000Y-147065625D02*
X56721875Y-147065625D01*
X53378125Y-145543750D02*
X54900000Y-147065625D01*
X53378125Y-141343750D02*
X53378125Y-145543750D01*
X93765625Y-201953125D02*
X93765625Y-201356250D01*
X93765625Y-201356250D02*
X91278125Y-203843750D01*
X91778125Y-208743750D02*
X93821875Y-208743750D01*
X91278125Y-208243750D02*
X91778125Y-208743750D01*
X91278125Y-203843750D02*
X91278125Y-208243750D01*
X93765625Y-182903125D02*
X94637500Y-182903125D01*
X94637500Y-182903125D02*
X95478125Y-183743750D01*
X95478125Y-183743750D02*
X95478125Y-189271875D01*
X95478125Y-189271875D02*
X94821875Y-189928125D01*
X112400000Y-211478125D02*
X112400000Y-218000000D01*
X112400000Y-218000000D02*
X113387500Y-218987500D01*
X74715625Y-187665625D02*
X74715625Y-193634375D01*
X74715625Y-193634375D02*
X75771875Y-194690625D01*
X75771875Y-175640625D02*
X75771875Y-174537500D01*
X75771875Y-174537500D02*
X75478125Y-174243750D01*
X75478125Y-169378125D02*
X74715625Y-168615625D01*
X75478125Y-174243750D02*
X75478125Y-169378125D01*
X75771875Y-156590625D02*
X71390625Y-156590625D01*
X71390625Y-156590625D02*
X69578125Y-154778125D01*
X74715625Y-149565625D02*
X72756250Y-149565625D01*
X69578125Y-152743750D02*
X69578125Y-154778125D01*
X72756250Y-149565625D02*
X69578125Y-152743750D01*
X56721875Y-128015625D02*
X56721875Y-127500000D01*
X56721875Y-127500000D02*
X57578125Y-126643750D01*
X57578125Y-122903125D02*
X55665625Y-120990625D01*
X57578125Y-126643750D02*
X57578125Y-122903125D01*
X75771875Y-137540625D02*
X75771875Y-137050000D01*
X75771875Y-137050000D02*
X76478125Y-136343750D01*
X76478125Y-132278125D02*
X74715625Y-130515625D01*
X76478125Y-136343750D02*
X76478125Y-132278125D01*
X56721875Y-108965625D02*
X56721875Y-109087500D01*
X56721875Y-109087500D02*
X58534375Y-110900000D01*
X68137500Y-110900000D02*
X70746875Y-108290625D01*
X58534375Y-110900000D02*
X68137500Y-110900000D01*
X75771875Y-113728125D02*
X75771875Y-115137500D01*
X75771875Y-115137500D02*
X78278125Y-117643750D01*
X89212500Y-121443750D02*
X89934375Y-120721875D01*
X86678125Y-121443750D02*
X89212500Y-121443750D01*
X82878125Y-117643750D02*
X86678125Y-121443750D01*
X78278125Y-117643750D02*
X82878125Y-117643750D01*
X87415625Y-206715625D02*
X87415625Y-205684375D01*
X87415625Y-205684375D02*
X88600000Y-204500000D01*
D25*
X66597858Y-333772375D02*
X65734375Y-332908892D01*
X65734375Y-332908892D02*
X65734375Y-331665625D01*
X65734375Y-331665625D02*
X67200000Y-330200000D01*
D24*
X65431250Y-235290625D02*
X65378125Y-235343750D01*
X68365625Y-235290625D02*
X65431250Y-235290625D01*
X88043750Y-207343750D02*
X87415625Y-206715625D01*
X96678125Y-172743750D02*
X93878125Y-172743750D01*
X105568750Y-163853125D02*
X96678125Y-172743750D01*
X91278125Y-175343750D02*
X91278125Y-189943750D01*
X93878125Y-172743750D02*
X91278125Y-175343750D01*
X106465625Y-163853125D02*
X105568750Y-163853125D01*
X106465625Y-120990625D02*
X106465625Y-144803125D01*
X106465625Y-163853125D02*
X106465625Y-182903125D01*
X106465625Y-163853125D02*
X106465625Y-144803125D01*
X71937500Y-235290625D02*
X72031250Y-235290625D01*
X72678125Y-225343750D02*
X74178125Y-223843750D01*
X74178125Y-223843750D02*
X80778125Y-223843750D01*
X80778125Y-223843750D02*
X83578125Y-221043750D01*
X83578125Y-221043750D02*
X83578125Y-211343750D01*
X83578125Y-211343750D02*
X87415625Y-207506250D01*
X72031250Y-235290625D02*
X72678125Y-234643750D01*
X72678125Y-234643750D02*
X72678125Y-225343750D01*
X87415625Y-207506250D02*
X87415625Y-206715625D01*
X87415625Y-206340625D02*
X87415625Y-206715625D01*
X68365625Y-235290625D02*
X71937500Y-235290625D01*
D26*
X68365625Y-235290625D02*
X68365625Y-235653125D01*
X87415625Y-206715625D02*
X87415625Y-206340625D01*
D25*
X64878125Y-332000000D02*
X64878125Y-331121875D01*
X64878125Y-331121875D02*
X65800000Y-330200000D01*
D24*
X72378125Y-206943750D02*
X73178125Y-207743750D01*
X70081250Y-216240625D02*
X68365625Y-216240625D01*
X73178125Y-213143750D02*
X70081250Y-216240625D01*
X73178125Y-207743750D02*
X73178125Y-213143750D01*
D25*
X64878125Y-332000000D02*
X64878125Y-333184012D01*
X64878125Y-333184012D02*
X66032173Y-334338060D01*
D24*
X68384375Y-216221875D02*
X68365625Y-216240625D01*
X68384375Y-216221875D02*
X68365625Y-216240625D01*
X87415625Y-187665625D02*
X87415625Y-188856250D01*
X87415625Y-188856250D02*
X88606250Y-190046875D01*
X87415625Y-168615625D02*
X87415625Y-187665625D01*
X87415625Y-149565625D02*
X87415625Y-168615625D01*
X89934375Y-133421875D02*
X87415625Y-133421875D01*
X87415625Y-133421875D02*
X87534375Y-133421875D01*
X87534375Y-133421875D02*
X87415625Y-133421875D01*
X87415625Y-130515625D02*
X87415625Y-133421875D01*
X87415625Y-133421875D02*
X87415625Y-149565625D01*
X68365625Y-197190625D02*
X58225000Y-197190625D01*
X58225000Y-197190625D02*
X56278125Y-195243750D01*
D25*
X63934375Y-332700000D02*
X63934375Y-330665625D01*
X63934375Y-332700000D02*
X63934375Y-333371633D01*
X63934375Y-330665625D02*
X64400000Y-330200000D01*
D24*
X53734375Y-194100000D02*
X53734375Y-191621875D01*
X68365625Y-178140625D02*
X58268750Y-168043750D01*
X53734375Y-169987500D02*
X53734375Y-175159375D01*
X55678125Y-168043750D02*
X53734375Y-169987500D01*
X58268750Y-168043750D02*
X55678125Y-168043750D01*
X53734375Y-175159375D02*
X53734375Y-191621875D01*
X56278125Y-195243750D02*
X54878125Y-195243750D01*
X54878125Y-195243750D02*
X53734375Y-194100000D01*
D25*
X63934375Y-333371633D02*
X65466487Y-334903745D01*
D24*
X68365625Y-159090625D02*
X68365625Y-178140625D01*
X68365625Y-140040625D02*
X68365625Y-159090625D01*
X68365625Y-120990625D02*
X68365625Y-140040625D01*
X68365625Y-120990625D02*
X70746875Y-120990625D01*
D25*
X63934375Y-333371633D02*
X65466487Y-334903745D01*
D24*
X106465625Y-201953125D02*
X106753125Y-201953125D01*
X106753125Y-201953125D02*
X107800000Y-203000000D01*
X126000000Y-189600000D02*
X126000000Y-173862500D01*
X125200000Y-190400000D02*
X126000000Y-189600000D01*
X124200000Y-190400000D02*
X125200000Y-190400000D01*
X123600000Y-191000000D02*
X124200000Y-190400000D01*
X123600000Y-194000000D02*
X123600000Y-191000000D01*
X124200000Y-194600000D02*
X123600000Y-194000000D01*
X124200000Y-209600000D02*
X124200000Y-194600000D01*
X122800000Y-211000000D02*
X124200000Y-209600000D01*
X120600000Y-211000000D02*
X122800000Y-211000000D01*
X119600000Y-210000000D02*
X120600000Y-211000000D01*
X115800000Y-210000000D02*
X119600000Y-210000000D01*
X115800000Y-206000000D02*
X115800000Y-210000000D01*
X116400000Y-205400000D02*
X115800000Y-206000000D01*
X116400000Y-203400000D02*
X116400000Y-205400000D01*
X115400000Y-202400000D02*
X116400000Y-203400000D01*
X113600000Y-202400000D02*
X115400000Y-202400000D01*
X113000000Y-203000000D02*
X113600000Y-202400000D01*
X107800000Y-203000000D02*
X113000000Y-203000000D01*
X126000000Y-173862500D02*
X125515625Y-173378125D01*
D25*
X76900000Y-330421875D02*
X77621875Y-330421875D01*
X85000000Y-331400000D02*
X85400000Y-331000000D01*
X78600000Y-331400000D02*
X85000000Y-331400000D01*
X77621875Y-330421875D02*
X78600000Y-331400000D01*
D24*
X87415625Y-225765625D02*
X86400000Y-225765625D01*
X85978125Y-225343750D02*
X85978125Y-212343750D01*
X86400000Y-225765625D02*
X85978125Y-225343750D01*
D25*
X73734375Y-333565504D02*
X71830448Y-335469431D01*
X73734375Y-332021875D02*
X75334375Y-330421875D01*
X75334375Y-330421875D02*
X76900000Y-330421875D01*
X73734375Y-333565504D02*
X73734375Y-332021875D01*
D24*
X125515625Y-173378125D02*
X125515625Y-172406250D01*
X125515625Y-172406250D02*
X126078125Y-171843750D01*
X127378125Y-167343750D02*
X127378125Y-165643750D01*
X126078125Y-168643750D02*
X127378125Y-167343750D01*
X126078125Y-171843750D02*
X126078125Y-168643750D01*
X106465625Y-201953125D02*
X107068750Y-201953125D01*
X125515625Y-154328125D02*
X126793750Y-154328125D01*
X131878125Y-152843750D02*
X135478125Y-156443750D01*
X128278125Y-152843750D02*
X131878125Y-152843750D01*
X126793750Y-154328125D02*
X128278125Y-152843750D01*
X87415625Y-225765625D02*
X87200000Y-225765625D01*
X93078125Y-210043750D02*
X94056250Y-211021875D01*
X94056250Y-211021875D02*
X99778125Y-211021875D01*
X99778125Y-211021875D02*
X106465625Y-204334375D01*
X106465625Y-204334375D02*
X106465625Y-201953125D01*
X85978125Y-212343750D02*
X88278125Y-210043750D01*
X88278125Y-210043750D02*
X93078125Y-210043750D01*
X127378125Y-165643750D02*
X127600000Y-165421875D01*
X133471875Y-165421875D02*
X135478125Y-163415625D01*
X127600000Y-165421875D02*
X133471875Y-165421875D01*
X135478125Y-156443750D02*
X135478125Y-163415625D01*
X125515625Y-130515625D02*
X125515625Y-154328125D01*
X125515625Y-125753125D02*
X125515625Y-130515625D01*
X125515625Y-154328125D02*
X125628125Y-154328125D01*
X127378125Y-173000000D02*
X127378125Y-190565625D01*
X127378125Y-190565625D02*
X125515625Y-192428125D01*
X110800000Y-221400000D02*
X115600000Y-221400000D01*
X115600000Y-221400000D02*
X124728125Y-230528125D01*
X124728125Y-230528125D02*
X125515625Y-230528125D01*
X125515625Y-211478125D02*
X124521875Y-211478125D01*
X124521875Y-211478125D02*
X123400000Y-212600000D01*
X111800000Y-220400000D02*
X110800000Y-221400000D01*
X114800000Y-220400000D02*
X111800000Y-220400000D01*
X115800000Y-219400000D02*
X114800000Y-220400000D01*
X115800000Y-217400000D02*
X115800000Y-219400000D01*
X113600000Y-215200000D02*
X115800000Y-217400000D01*
X113600000Y-213400000D02*
X113600000Y-215200000D01*
X114400000Y-212600000D02*
X113600000Y-213400000D01*
X123400000Y-212600000D02*
X114400000Y-212600000D01*
D25*
X89621875Y-322800000D02*
X87878125Y-324543750D01*
X74534375Y-333896875D02*
X72396134Y-336035116D01*
X74534375Y-332221875D02*
X74534375Y-333896875D01*
X75534375Y-331221875D02*
X74534375Y-332221875D01*
X77278125Y-331221875D02*
X75534375Y-331221875D01*
X87878125Y-324543750D02*
X86578125Y-325843750D01*
X86578125Y-325843750D02*
X86578125Y-331621874D01*
X86578125Y-331621874D02*
X86099999Y-332100000D01*
X86099999Y-332100000D02*
X78156250Y-332100000D01*
X78156250Y-332100000D02*
X77278125Y-331221875D01*
X89700000Y-322800000D02*
X89621875Y-322800000D01*
D24*
X106465625Y-221003125D02*
X107003125Y-221003125D01*
X107003125Y-221003125D02*
X107400000Y-221400000D01*
X107400000Y-221400000D02*
X110800000Y-221400000D01*
X127378125Y-169134375D02*
X129087500Y-167425000D01*
X127378125Y-173000000D02*
X127378125Y-169134375D01*
X129087500Y-167425000D02*
X129696875Y-167425000D01*
X129696875Y-167425000D02*
X130278125Y-166843750D01*
X134478125Y-167743750D02*
X134456250Y-167743750D01*
X133578125Y-166843750D02*
X134478125Y-167743750D01*
X130278125Y-166843750D02*
X133578125Y-166843750D01*
X144565625Y-173378125D02*
X140090625Y-173378125D01*
X140090625Y-173378125D02*
X134456250Y-167743750D01*
X125515625Y-211478125D02*
X125515625Y-192428125D01*
X113871875Y-356615625D02*
X113871875Y-356250000D01*
X113871875Y-356250000D02*
X114678125Y-355443750D01*
X114678125Y-350743750D02*
X113320312Y-349385937D01*
X114678125Y-355443750D02*
X114678125Y-350743750D01*
X131865625Y-316253125D02*
X128168750Y-316253125D01*
X128168750Y-316253125D02*
X126878125Y-317543750D01*
X132921875Y-325000000D02*
X132921875Y-323278125D01*
X131478125Y-326443750D02*
X132921875Y-325000000D01*
X129078125Y-326443750D02*
X131478125Y-326443750D01*
X126878125Y-324243750D02*
X129078125Y-326443750D01*
X126878125Y-317543750D02*
X126878125Y-324243750D01*
X131865625Y-173378125D02*
X130643750Y-173378125D01*
X130643750Y-173378125D02*
X129878125Y-174143750D01*
X131437500Y-180403125D02*
X132921875Y-180403125D01*
X129878125Y-178843750D02*
X131437500Y-180403125D01*
X129878125Y-174143750D02*
X129878125Y-178843750D01*
X132921875Y-156590625D02*
X132921875Y-155487500D01*
X132921875Y-155487500D02*
X131678125Y-154243750D01*
X131678125Y-154243750D02*
X129568750Y-154243750D01*
X129568750Y-154243750D02*
X129087500Y-154725000D01*
X93765625Y-120990625D02*
X93765625Y-126959375D01*
X93765625Y-126959375D02*
X94821875Y-128015625D01*
X94378125Y-127571875D02*
X94821875Y-128015625D01*
X113871875Y-137540625D02*
X112775000Y-137540625D01*
X112775000Y-137540625D02*
X112178125Y-136943750D01*
X112178125Y-136943750D02*
X112178125Y-131153125D01*
X112178125Y-131153125D02*
X112815625Y-130515625D01*
X112378125Y-126153125D02*
X112378125Y-123943750D01*
X116278125Y-116134375D02*
X113871875Y-113728125D01*
X116278125Y-120043750D02*
X116278125Y-116134375D01*
X112378125Y-123943750D02*
X116278125Y-120043750D01*
D26*
X112815625Y-125753125D02*
X112815625Y-125356250D01*
D25*
X57884375Y-349621875D02*
X58934375Y-349621875D01*
X60272117Y-350421875D02*
X65466487Y-345227505D01*
X59734375Y-350421875D02*
X60272117Y-350421875D01*
X58934375Y-349621875D02*
X59734375Y-350421875D01*
X57884375Y-351421875D02*
X60403488Y-351421875D01*
X60403488Y-351421875D02*
X66032173Y-345793190D01*
M02*
