M48
;DRILL file {KiCad 4.0.7-e2-6376~58~ubuntu16.04.1} date Fri Sep 22 15:40:38 2017
;FORMAT={-:-/ absolute / inch / decimal}
FMAT,2
INCH,TZ
T1C0.016
T2C0.028
T3C0.039
T4C0.059
T5C0.126
%
G90
G05
M72
T1
X2.0762Y-13.6702
X2.147Y-13.4969
X2.2573Y-12.8985
X2.4069Y-13.1977
X2.4305Y-12.2607
X2.4305Y-12.5363
X2.4699Y-13.6544
X2.4777Y-13.0166
X2.5385Y-12.9781
X2.5543Y-7.7655
X2.5739Y-9.2655
X2.5818Y-6.2655
X2.5858Y-12.986
X2.6195Y-13.0166
X2.6982Y-12.7331
X2.6982Y-13.8906
X2.7061Y-13.0796
X2.7061Y-14.0009
X2.7376Y-12.8355
X2.7432Y-12.5293
X2.7511Y-6.36
X2.7848Y-12.4261
X2.8163Y-13.6938
X2.8495Y-8.1474
X2.8714Y-13.0166
X2.8771Y-14.2143
X2.8793Y-12.6938
X2.9029Y-13.8906
X3.0132Y-13.5048
X3.1391Y-11.1426
X3.1391Y-14.1347
X3.2573Y-13.4261
X3.2629Y-12.6435
X3.273Y-13.3473
X3.3478Y-12.6347
X3.4305Y-13.3394
X3.4361Y-13.5057
X3.4361Y-13.5608
X3.4462Y-13.0717
X3.4884Y-7.4822
X3.4913Y-12.3561
X3.5014Y-11.2765
X3.5092Y-8.056
X3.5171Y-13.182
X3.5328Y-12.741
X3.5328Y-12.7883
X3.5328Y-12.8355
X3.5936Y-7.4781
X3.6291Y-13.0726
X3.8062Y-12.4269
X4.1015Y-5.612
X4.1916Y-13.0017
X4.2747Y-5.612
X4.2809Y-12.031
X4.2853Y-7.8103
X4.2853Y-8.0447
X4.3062Y-9.2931
X4.3102Y-11.8167
X4.3259Y-7.9348
X4.3322Y-7.4353
X4.5936Y-8.3167
X4.6903Y-8.3237
X4.7612Y-13.7646
X4.8009Y-7.5759
X4.8141Y-9.0647
X4.8163Y-12.8276
X5.1015Y-6.4309
X5.2235Y-6.6435
T3
X2.1916Y-4.7634
X2.1916Y-5.5134
X2.1916Y-6.2634
X2.1916Y-7.0134
X2.1916Y-7.7634
X2.1916Y-8.5134
X2.1916Y-9.2634
X2.1916Y-10.0134
X2.1916Y-10.7634
X2.1916Y-11.5134
X2.1916Y-12.2634
X2.6916Y-4.7634
X2.6916Y-5.5134
X2.6916Y-6.2634
X2.6916Y-7.0134
X2.6916Y-7.7634
X2.6916Y-8.5134
X2.6916Y-9.2634
X2.6916Y-10.0134
X2.6916Y-10.7634
X2.6916Y-11.5134
X2.6916Y-12.2634
X2.7853Y-4.2634
X2.7853Y-4.7634
X2.7853Y-12.2634
X2.7853Y-12.7634
X2.7853Y-13.9978
X2.7853Y-14.3978
X2.9416Y-5.1384
X2.9416Y-5.8884
X2.9416Y-6.6384
X2.9416Y-7.3884
X2.9416Y-8.1384
X2.9416Y-8.8884
X2.9416Y-9.6384
X2.9416Y-10.3884
X2.9416Y-11.1384
X2.9416Y-11.8884
X2.9416Y-12.6384
X2.9416Y-14.1384
X3.4416Y-5.1384
X3.4416Y-5.8884
X3.4416Y-6.6384
X3.4416Y-7.3884
X3.4416Y-8.1384
X3.4416Y-8.8884
X3.4416Y-9.6384
X3.4416Y-10.3884
X3.4416Y-11.1384
X3.4416Y-11.8884
X3.4416Y-12.6384
X3.4416Y-14.1384
X3.5353Y-12.9197
X3.5353Y-13.4197
X3.5407Y-4.7528
X3.5407Y-5.2528
X3.6916Y-4.7634
X3.6916Y-5.7009
X3.6916Y-6.4509
X3.6916Y-7.2009
X3.6916Y-7.9509
X3.6916Y-8.7009
X3.6916Y-9.4509
X3.6916Y-10.2009
X3.6916Y-10.9509
X3.6916Y-11.7009
X3.6916Y-12.4509
X3.6916Y-13.2009
X3.6916Y-13.9509
X4.1916Y-4.7634
X4.1916Y-5.7009
X4.1916Y-6.4509
X4.1916Y-7.2009
X4.1916Y-7.9509
X4.1916Y-8.7009
X4.1916Y-9.4509
X4.1916Y-10.2009
X4.1916Y-10.9509
X4.1916Y-11.7009
X4.1916Y-12.4509
X4.1916Y-13.2009
X4.1916Y-13.9509
X4.4416Y-4.9509
X4.4416Y-5.1384
X4.4416Y-6.0759
X4.4416Y-6.8259
X4.4416Y-7.5759
X4.4416Y-8.3259
X4.4416Y-9.0759
X4.4416Y-9.8259
X4.4416Y-10.5759
X4.4416Y-11.3259
X4.4416Y-12.0759
X4.4416Y-12.8259
X4.4416Y-13.7634
X4.9416Y-4.9509
X4.9416Y-5.1384
X4.9416Y-6.0759
X4.9416Y-6.8259
X4.9416Y-7.5759
X4.9416Y-8.3259
X4.9416Y-9.0759
X4.9416Y-9.8259
X4.9416Y-10.5759
X4.9416Y-11.3259
X4.9416Y-12.0759
X4.9416Y-12.8259
X4.9416Y-13.7634
X5.0822Y-6.0915
X5.0822Y-6.5915
X5.1916Y-6.8259
X5.1916Y-9.2634
X5.1916Y-12.4509
X5.1916Y-13.3884
X5.6916Y-6.8259
X5.6916Y-9.2634
X5.6916Y-12.4509
X5.6916Y-13.3884
T4
X2.2331Y-4.29
X2.2331Y-5.04
X2.2331Y-5.79
X2.2331Y-6.54
X2.2331Y-7.29
X2.2331Y-8.04
X2.2331Y-8.79
X2.2331Y-9.54
X2.2331Y-10.29
X2.2331Y-11.04
X2.2331Y-11.79
X2.2331Y-12.54
X2.2331Y-13.29
X2.2331Y-14.04
X2.2528Y-4.4868
X2.2528Y-5.2368
X2.2528Y-5.9868
X2.2528Y-6.7368
X2.2528Y-7.4868
X2.2528Y-8.2368
X2.2528Y-8.9868
X2.2528Y-9.7368
X2.2528Y-10.4868
X2.2528Y-11.2368
X2.2528Y-11.9868
X2.2528Y-12.7368
X2.2528Y-13.4868
X2.2528Y-14.2368
X2.9831Y-4.4775
X2.9831Y-5.415
X2.9831Y-6.165
X2.9831Y-6.915
X2.9831Y-7.665
X2.9831Y-8.415
X2.9831Y-9.165
X2.9831Y-9.915
X2.9831Y-10.665
X2.9831Y-11.415
X2.9831Y-12.165
X2.9831Y-12.915
X2.9831Y-13.665
X2.9831Y-14.415
X3.0028Y-4.6743
X3.0028Y-5.6118
X3.0028Y-6.3618
X3.0028Y-7.1118
X3.0028Y-7.8618
X3.0028Y-8.6118
X3.0028Y-9.3618
X3.0028Y-10.1118
X3.0028Y-10.8618
X3.0028Y-11.6118
X3.0028Y-12.3618
X3.0028Y-13.1118
X3.0028Y-13.8618
X3.0028Y-14.6118
X3.7331Y-5.04
X3.7331Y-5.9775
X3.7331Y-6.7275
X3.7331Y-7.4775
X3.7331Y-8.2275
X3.7331Y-8.9775
X3.7331Y-9.7275
X3.7331Y-10.4775
X3.7331Y-11.2275
X3.7331Y-11.9775
X3.7331Y-12.7275
X3.7331Y-13.4775
X3.7331Y-14.2275
X3.7528Y-5.2368
X3.7528Y-6.1743
X3.7528Y-6.9243
X3.7528Y-7.6743
X3.7528Y-8.4243
X3.7528Y-9.1743
X3.7528Y-9.9243
X3.7528Y-10.6743
X3.7528Y-11.4243
X3.7528Y-12.1743
X3.7528Y-12.9243
X3.7528Y-13.6743
X3.7528Y-14.4243
X4.4831Y-4.4775
X4.4831Y-5.415
X4.4831Y-6.3525
X4.4831Y-7.1025
X4.4831Y-7.8525
X4.4831Y-8.6025
X4.4831Y-9.3525
X4.4831Y-10.1025
X4.4831Y-10.8525
X4.4831Y-11.6025
X4.4831Y-12.3525
X4.4831Y-13.1025
X4.4831Y-14.04
X4.5028Y-4.6743
X4.5028Y-5.6118
X4.5028Y-6.5493
X4.5028Y-7.2993
X4.5028Y-8.0493
X4.5028Y-8.7993
X4.5028Y-9.5493
X4.5028Y-10.2993
X4.5028Y-11.0493
X4.5028Y-11.7993
X4.5028Y-12.5493
X4.5028Y-13.2993
X4.5028Y-14.2368
X5.2331Y-6.165
X5.2331Y-7.1025
X5.2331Y-9.915
X5.2331Y-12.7275
X5.2331Y-13.665
X5.2528Y-6.3618
X5.2528Y-7.2993
X5.2528Y-10.1118
X5.2528Y-12.9243
X5.2528Y-13.8618
T5
X2.7853Y-12.0759
X3.1603Y-4.1072
X3.5353Y-8.4197
X4.6603Y-14.6072
X5.4103Y-7.7634
X5.4103Y-12.2634
T2
X1.8916Y-13.6197G85X1.99Y-13.6197
G05
X1.8916Y-13.9071G85X1.99Y-13.9071
G05
T0
M30
