G04 #@! TF.FileFunction,Profile,NP*
%FSLAX46Y46*%
G04 Gerber Fmt 4.6, Leading zero omitted, Abs format (unit mm)*
G04 Created by KiCad (PCBNEW 4.0.7-e2-6376~58~ubuntu16.04.1) date Fri Sep 29 23:52:55 2017*
%MOMM*%
%LPD*%
G01*
G04 APERTURE LIST*
%ADD10C,0.150000*%
G04 APERTURE END LIST*
D10*
X87415625Y-101940625D02*
X54078125Y-101940625D01*
X89796875Y-104321875D02*
G75*
G03X87415625Y-101940625I-2381250J0D01*
G01*
X89796875Y-116228125D02*
X89796875Y-104321875D01*
X108846875Y-116228125D02*
X89796875Y-116228125D01*
X108846875Y-109084375D02*
X108846875Y-116228125D01*
X111228125Y-106703125D02*
G75*
G03X108846875Y-109084375I0J-2381250D01*
G01*
X125515625Y-106703125D02*
X111228125Y-106703125D01*
X127896875Y-109084375D02*
G75*
G03X125515625Y-106703125I-2381250J0D01*
G01*
X127896875Y-149565625D02*
X127896875Y-109084375D01*
X144565625Y-149565625D02*
X127896875Y-149565625D01*
X146946875Y-151946875D02*
G75*
G03X144565625Y-149565625I-2381250J0D01*
G01*
X146946875Y-153137500D02*
X146946875Y-151946875D01*
X146946875Y-356734375D02*
X146946875Y-153137500D01*
X144565625Y-359115625D02*
G75*
G03X146946875Y-356734375I0J2381250D01*
G01*
X127896875Y-359115625D02*
X144565625Y-359115625D01*
X127896875Y-371021875D02*
X127896875Y-359115625D01*
X125515625Y-373403125D02*
G75*
G03X127896875Y-371021875I0J2381250D01*
G01*
X89796875Y-373403125D02*
X125515625Y-373403125D01*
X89796875Y-375784375D02*
X89796875Y-373403125D01*
X87415625Y-378165625D02*
G75*
G03X89796875Y-375784375I0J2381250D01*
G01*
X73128125Y-378165625D02*
X87415625Y-378165625D01*
X70746875Y-375784375D02*
G75*
G03X73128125Y-378165625I2381250J0D01*
G01*
X70746875Y-368640625D02*
X70746875Y-375784375D01*
X54078125Y-368640625D02*
X70746875Y-368640625D01*
X51696875Y-366259375D02*
G75*
G03X54078125Y-368640625I2381250J0D01*
G01*
X51696875Y-354353125D02*
X51696875Y-366259375D01*
X45743750Y-354353125D02*
X51696875Y-354353125D01*
X45743750Y-344828125D02*
X45743750Y-354353125D01*
X51696875Y-344828125D02*
X45743750Y-344828125D01*
X51696875Y-104321875D02*
X51696875Y-344828125D01*
X54078125Y-101940625D02*
G75*
G03X51696875Y-104321875I0J-2381250D01*
G01*
M02*
