M48
;DRILL file {KiCad 4.0.7-e2-6376~58~ubuntu16.04.1} date Fri Oct  6 23:26:56 2017
;FORMAT={-:-/ absolute / metric / decimal}
FMAT,2
METRIC,TZ
T1C0.600
T2C0.700
T3C1.000
T4C1.499
T5C3.000
%
G90
G05
M71
T1
X50.8Y-329.438
X51.308Y-339.09
X51.308Y-347.726
X52.07Y-328.422
X53.086Y-323.596
X66.04Y-345.44
X66.588Y-322.317
X67.056Y-316.23
X68.326Y-310.388
X75.478Y-313.681
X80.01Y-332.74
X81.828Y-332.731
X83.82Y-332.74
X85.598Y-320.04
X85.852Y-332.74
X87.884Y-321.056
X87.884Y-332.74
X107.188Y-330.708
T3
X54.475Y-132.897
X54.475Y-151.947
X54.475Y-170.997
X54.475Y-190.047
X54.475Y-209.097
X54.475Y-228.147
X54.475Y-247.197
X54.475Y-266.247
X54.475Y-285.297
X54.475Y-304.347
X56.856Y-113.847
X67.019Y-348.056
X67.019Y-358.216
X67.175Y-132.897
X67.175Y-151.947
X67.175Y-170.997
X67.175Y-190.047
X67.175Y-209.097
X67.175Y-228.147
X67.175Y-247.197
X67.175Y-266.247
X67.175Y-285.297
X67.175Y-304.347
X67.31Y-97.028
X67.31Y-109.728
X67.31Y-117.094
X67.31Y-129.794
X69.556Y-113.847
X69.556Y-299.584
X69.556Y-312.284
X73.525Y-123.372
X73.525Y-142.422
X73.525Y-161.472
X73.525Y-180.522
X73.525Y-199.572
X73.525Y-218.622
X73.525Y-237.672
X73.525Y-256.722
X73.525Y-275.772
X73.525Y-294.822
X73.525Y-313.872
X73.525Y-351.972
X86.225Y-123.372
X86.225Y-142.422
X86.225Y-161.472
X86.225Y-180.522
X86.225Y-199.572
X86.225Y-218.622
X86.225Y-237.672
X86.225Y-256.722
X86.225Y-275.772
X86.225Y-294.822
X86.225Y-313.872
X86.225Y-324.587
X86.225Y-337.287
X86.225Y-351.972
X92.575Y-113.847
X92.575Y-137.659
X92.575Y-156.709
X92.575Y-175.759
X92.575Y-194.809
X92.575Y-213.859
X92.575Y-232.909
X92.575Y-251.959
X92.575Y-271.009
X92.575Y-290.059
X92.575Y-309.109
X92.575Y-328.159
X92.575Y-347.209
X105.275Y-113.847
X105.275Y-137.659
X105.275Y-156.709
X105.275Y-175.759
X105.275Y-194.809
X105.275Y-213.859
X105.275Y-232.909
X105.275Y-251.959
X105.275Y-271.009
X105.275Y-290.059
X105.275Y-309.109
X105.275Y-328.159
X105.275Y-347.209
X108.847Y-118.609
X108.847Y-123.372
X111.625Y-147.184
X111.625Y-166.234
X111.625Y-185.284
X111.625Y-204.334
X111.625Y-223.384
X111.625Y-242.434
X111.625Y-261.484
X111.625Y-280.534
X111.625Y-299.584
X111.625Y-318.634
X111.625Y-342.447
X121.547Y-118.609
X121.547Y-123.372
X124.325Y-147.184
X124.325Y-166.234
X124.325Y-185.284
X124.325Y-204.334
X124.325Y-223.384
X124.325Y-242.434
X124.325Y-261.484
X124.325Y-280.534
X124.325Y-299.584
X124.325Y-303.156
X124.325Y-315.856
X124.325Y-318.634
X124.325Y-326.969
X124.325Y-339.669
X124.325Y-342.447
X126.706Y-147.184
X126.706Y-159.884
X126.706Y-166.234
X126.706Y-231.719
X126.706Y-244.419
X139.406Y-166.234
T4
X54.341Y-101.822
X54.341Y-120.872
X54.341Y-139.922
X54.341Y-158.972
X54.341Y-178.022
X54.341Y-197.072
X54.341Y-216.122
X54.341Y-235.172
X54.341Y-254.222
X54.341Y-273.272
X54.341Y-292.322
X54.341Y-311.372
X54.341Y-330.422
X54.341Y-349.472
X54.841Y-106.822
X54.841Y-125.872
X54.841Y-144.922
X54.841Y-163.972
X54.841Y-183.022
X54.841Y-202.072
X54.841Y-221.122
X54.841Y-240.172
X54.841Y-259.222
X54.841Y-278.272
X54.841Y-297.322
X54.841Y-316.372
X54.841Y-335.422
X54.841Y-354.472
X73.391Y-106.584
X73.391Y-130.397
X73.391Y-149.447
X73.391Y-168.497
X73.391Y-187.547
X73.391Y-206.597
X73.391Y-225.647
X73.391Y-244.697
X73.391Y-263.747
X73.391Y-282.797
X73.391Y-301.847
X73.391Y-320.897
X73.391Y-339.947
X73.391Y-358.997
X73.891Y-111.584
X73.891Y-135.397
X73.891Y-154.447
X73.891Y-173.497
X73.891Y-192.547
X73.891Y-211.597
X73.891Y-230.647
X73.891Y-249.697
X73.891Y-268.747
X73.891Y-287.797
X73.891Y-306.847
X73.891Y-325.897
X73.891Y-344.947
X73.891Y-363.997
X92.441Y-120.872
X92.441Y-144.684
X92.441Y-163.734
X92.441Y-182.784
X92.441Y-201.834
X92.441Y-220.884
X92.441Y-239.934
X92.441Y-258.984
X92.441Y-278.034
X92.441Y-297.084
X92.441Y-316.134
X92.441Y-335.184
X92.441Y-354.234
X92.941Y-125.872
X92.941Y-149.684
X92.941Y-168.734
X92.941Y-187.784
X92.941Y-206.834
X92.941Y-225.884
X92.941Y-244.934
X92.941Y-263.984
X92.941Y-283.034
X92.941Y-302.084
X92.941Y-321.134
X92.941Y-340.184
X92.941Y-359.234
X111.491Y-106.584
X111.491Y-130.397
X111.491Y-154.209
X111.491Y-173.259
X111.491Y-192.309
X111.491Y-211.359
X111.491Y-230.409
X111.491Y-249.459
X111.491Y-268.509
X111.491Y-287.559
X111.491Y-306.609
X111.491Y-325.659
X111.491Y-349.472
X111.991Y-111.584
X111.991Y-135.397
X111.991Y-159.209
X111.991Y-178.259
X111.991Y-197.309
X111.991Y-216.359
X111.991Y-235.409
X111.991Y-254.459
X111.991Y-273.509
X111.991Y-292.559
X111.991Y-311.609
X111.991Y-330.659
X111.991Y-354.472
X130.541Y-149.447
X130.541Y-173.259
X130.541Y-244.697
X130.541Y-316.134
X130.541Y-339.947
X131.041Y-154.447
X131.041Y-178.259
X131.041Y-249.697
X131.041Y-321.134
X131.041Y-344.947
T5
X68.366Y-294.822
X77.891Y-97.178
X87.416Y-206.716
X115.991Y-363.878
X135.041Y-190.047
X135.041Y-304.347
T2
X45.666Y-338.797G85X48.166Y-338.797
G05
X45.666Y-346.097G85X48.166Y-346.097
G05
T0
M30
