M48
;DRILL file {KiCad 4.0.6-e0-6349~53~ubuntu16.04.1} date Mon Mar 20 02:18:53 2017
;FORMAT={-:-/ absolute / metric / decimal}
FMAT,2
METRIC,TZ
T1C1.499
%
G90
G05
M71
T1
X32.029Y-39.336
X35.521Y-50.766
X37.902Y-69.816
X38.379Y-36.796
X41.871Y-48.226
X42.665Y-88.866
X44.252Y-67.276
X49.015Y-86.326
X51.079Y-39.336
X57.429Y-36.796
X59.334Y-50.766
X64.096Y-69.816
X65.684Y-48.226
X68.859Y-107.916
X70.129Y-39.336
X70.446Y-67.276
X73.621Y-88.866
X75.209Y-105.376
X76.479Y-36.796
X78.384Y-50.766
X79.971Y-86.326
X83.146Y-69.816
X84.734Y-48.226
X87.909Y-107.916
X89.179Y-39.336
X89.496Y-67.276
X92.671Y-88.866
X94.259Y-105.376
X95.529Y-36.796
X97.434Y-50.766
X99.021Y-86.326
X102.196Y-69.816
X103.784Y-48.226
X108.229Y-39.336
X108.546Y-67.276
X111.721Y-88.866
X114.579Y-36.796
X116.484Y-50.766
X118.071Y-86.326
X121.246Y-69.816
X122.834Y-48.226
X127.279Y-39.336
X127.596Y-67.276
X130.771Y-88.866
X133.629Y-36.796
X135.534Y-50.766
X137.121Y-86.326
X140.296Y-69.816
X141.884Y-48.226
X146.329Y-39.336
X146.646Y-67.276
X149.821Y-88.866
X152.679Y-36.796
X154.584Y-50.766
X156.171Y-86.326
X159.346Y-69.816
X160.934Y-48.226
X164.109Y-107.916
X165.379Y-39.336
X165.696Y-67.276
X168.871Y-88.866
X170.459Y-105.376
X171.729Y-36.796
X173.634Y-50.766
X175.221Y-86.326
X178.396Y-69.816
X179.984Y-48.226
X184.429Y-39.336
X184.746Y-67.276
X187.921Y-88.866
X190.779Y-36.796
X192.685Y-50.766
X194.271Y-86.326
X197.446Y-69.816
X199.035Y-48.226
X203.479Y-39.336
X203.796Y-67.276
X206.971Y-88.866
X209.829Y-36.796
X211.734Y-50.766
X213.321Y-86.326
X216.496Y-69.816
X218.084Y-48.226
X222.529Y-39.336
X222.846Y-67.276
X226.021Y-88.866
X226.021Y-107.916
X228.879Y-36.796
X230.784Y-50.766
X232.371Y-86.326
X232.371Y-105.376
X235.546Y-69.816
X237.134Y-48.226
X241.579Y-39.336
X241.896Y-67.276
X245.071Y-88.866
X247.929Y-36.796
X249.834Y-50.766
X249.834Y-107.916
X251.421Y-86.326
X254.596Y-69.816
X256.184Y-48.226
X256.184Y-105.376
X260.629Y-39.336
X260.946Y-67.276
X266.979Y-36.796
X268.884Y-50.766
X271.265Y-88.866
X275.234Y-48.226
X277.615Y-86.326
X279.679Y-39.336
X285.553Y-69.816
X286.029Y-36.796
X291.902Y-67.276
X292.696Y-50.766
X297.459Y-88.866
X298.729Y-39.336
X299.046Y-48.226
X303.809Y-86.326
X305.079Y-36.796
T0
M30
