M48
;DRILL file {KiCad 4.0.6-e0-6349~53~ubuntu16.04.1} date Mon Mar 20 02:18:53 2017
;FORMAT={-:-/ absolute / metric / decimal}
FMAT,2
METRIC,TZ
T1C3.988
%
G90
G05
M71
T1
X34.569Y-34.256
X39.331Y-53.306
X41.712Y-72.356
X46.475Y-91.406
X53.619Y-34.256
X63.144Y-53.306
X67.906Y-72.356
X72.669Y-34.256
X72.669Y-110.456
X77.431Y-91.406
X82.194Y-53.306
X86.956Y-72.356
X91.719Y-34.256
X91.719Y-110.456
X96.481Y-91.406
X101.244Y-53.306
X106.006Y-72.356
X110.769Y-34.256
X115.531Y-91.406
X120.294Y-53.306
X125.056Y-72.356
X129.819Y-34.256
X134.581Y-91.406
X139.344Y-53.306
X144.106Y-72.356
X148.869Y-34.256
X153.631Y-91.406
X158.394Y-53.306
X163.156Y-72.356
X167.919Y-34.256
X167.919Y-110.456
X172.681Y-91.406
X177.444Y-53.306
X182.206Y-72.356
X186.969Y-34.256
X191.731Y-91.406
X196.495Y-53.306
X201.256Y-72.356
X206.019Y-34.256
X210.781Y-91.406
X215.544Y-53.306
X220.306Y-72.356
X225.069Y-34.256
X229.831Y-91.406
X229.831Y-110.456
X234.594Y-53.306
X239.356Y-72.356
X244.119Y-34.256
X248.881Y-91.406
X253.644Y-53.306
X253.644Y-110.456
X258.406Y-72.356
X263.169Y-34.256
X272.694Y-53.306
X275.075Y-91.406
X282.219Y-34.256
X289.363Y-72.356
X296.506Y-53.306
X301.269Y-34.256
X301.269Y-91.406
T0
M30
