G04 #@! TF.FileFunction,Copper,L1,Top,Signal*
%FSLAX46Y46*%
G04 Gerber Fmt 4.6, Leading zero omitted, Abs format (unit mm)*
G04 Created by KiCad (PCBNEW 4.0.7-e2-6376~58~ubuntu16.04.1) date Thu Oct  5 22:52:59 2017*
%MOMM*%
%LPD*%
G01*
G04 APERTURE LIST*
%ADD10C,0.150000*%
%ADD11C,2.286000*%
%ADD12O,3.800000X1.300000*%
%ADD13R,2.000000X2.000000*%
%ADD14O,2.000000X2.000000*%
%ADD15C,4.000000*%
%ADD16C,1.000000*%
%ADD17C,0.800000*%
%ADD18C,0.400000*%
G04 APERTURE END LIST*
D10*
D11*
X133421875Y-328278125D03*
X132921875Y-323278125D03*
X57221875Y-342565625D03*
X56721875Y-337565625D03*
X95321875Y-156828125D03*
X94821875Y-151828125D03*
X114371875Y-204453125D03*
X113871875Y-199453125D03*
X57221875Y-171115625D03*
X56721875Y-166115625D03*
X114371875Y-185403125D03*
X113871875Y-180403125D03*
X114371875Y-166353125D03*
X113871875Y-161353125D03*
X57221875Y-190165625D03*
X56721875Y-185165625D03*
X57221875Y-361615625D03*
X56721875Y-356615625D03*
X57221875Y-323515625D03*
X56721875Y-318515625D03*
X57221875Y-304465625D03*
X56721875Y-299465625D03*
X57221875Y-285415625D03*
X56721875Y-280415625D03*
X57221875Y-266365625D03*
X56721875Y-261365625D03*
X57221875Y-247315625D03*
X56721875Y-242315625D03*
X57221875Y-228265625D03*
X56721875Y-223265625D03*
X57221875Y-209215625D03*
X56721875Y-204215625D03*
X95321875Y-175878125D03*
X94821875Y-170878125D03*
X57221875Y-152065625D03*
X56721875Y-147065625D03*
X95321875Y-347328125D03*
X94821875Y-342328125D03*
X114371875Y-261603125D03*
X113871875Y-256603125D03*
X114371875Y-299703125D03*
X113871875Y-294703125D03*
X95321875Y-309228125D03*
X94821875Y-304228125D03*
X76271875Y-313990625D03*
X75771875Y-308990625D03*
X95321875Y-290178125D03*
X94821875Y-285178125D03*
X95321875Y-271128125D03*
X94821875Y-266128125D03*
X95321875Y-252078125D03*
X94821875Y-247078125D03*
X76271875Y-218740625D03*
X75771875Y-213740625D03*
X95321875Y-233028125D03*
X94821875Y-228028125D03*
X95321875Y-213978125D03*
X94821875Y-208978125D03*
X95321875Y-194928125D03*
X94821875Y-189928125D03*
X114371875Y-223503125D03*
X113871875Y-218503125D03*
X114371875Y-242553125D03*
X113871875Y-237553125D03*
X76271875Y-199690625D03*
X75771875Y-194690625D03*
X76271875Y-180640625D03*
X75771875Y-175640625D03*
X76271875Y-352090625D03*
X75771875Y-347090625D03*
X76271875Y-294940625D03*
X75771875Y-289940625D03*
X95321875Y-328278125D03*
X94821875Y-323278125D03*
X76271875Y-275890625D03*
X75771875Y-270890625D03*
X76271875Y-237790625D03*
X75771875Y-232790625D03*
X114371875Y-280653125D03*
X113871875Y-275653125D03*
X76271875Y-333040625D03*
X75771875Y-328040625D03*
X114371875Y-318753125D03*
X113871875Y-313753125D03*
X76271875Y-256840625D03*
X75771875Y-251840625D03*
X114371875Y-337803125D03*
X113871875Y-332803125D03*
X76271875Y-161590625D03*
X75771875Y-156590625D03*
X57221875Y-133015625D03*
X56721875Y-128015625D03*
X76271875Y-142540625D03*
X75771875Y-137540625D03*
X57221875Y-113965625D03*
X56721875Y-108965625D03*
X133421875Y-352090625D03*
X132921875Y-347090625D03*
D12*
X49296875Y-353240625D03*
X49296875Y-345940625D03*
D11*
X95321875Y-366378125D03*
X94821875Y-361378125D03*
D13*
X70746875Y-311490625D03*
D14*
X70746875Y-324190625D03*
D13*
X68365625Y-311490625D03*
D14*
X55665625Y-311490625D03*
D13*
X68365625Y-292440625D03*
D14*
X55665625Y-292440625D03*
D13*
X68365625Y-273390625D03*
D14*
X55665625Y-273390625D03*
D13*
X87415625Y-359115625D03*
D14*
X74715625Y-359115625D03*
D13*
X89796875Y-328159375D03*
D14*
X89796875Y-340859375D03*
D13*
X87415625Y-321015625D03*
D14*
X74715625Y-321015625D03*
D13*
X87415625Y-301965625D03*
D14*
X74715625Y-301965625D03*
D13*
X87415625Y-282915625D03*
D14*
X74715625Y-282915625D03*
D13*
X68365625Y-254340625D03*
D14*
X55665625Y-254340625D03*
D13*
X106465625Y-354353125D03*
D14*
X93765625Y-354353125D03*
D13*
X106465625Y-335303125D03*
D14*
X93765625Y-335303125D03*
D13*
X106465625Y-316253125D03*
D14*
X93765625Y-316253125D03*
D13*
X106465625Y-297203125D03*
D14*
X93765625Y-297203125D03*
D13*
X106465625Y-278153125D03*
D14*
X93765625Y-278153125D03*
D13*
X87415625Y-263865625D03*
D14*
X74715625Y-263865625D03*
D13*
X125515625Y-325778125D03*
D14*
X112815625Y-325778125D03*
D13*
X125515625Y-306728125D03*
D14*
X112815625Y-306728125D03*
D13*
X125515625Y-287678125D03*
D14*
X112815625Y-287678125D03*
D13*
X125515625Y-268628125D03*
D14*
X112815625Y-268628125D03*
D13*
X106465625Y-259103125D03*
D14*
X93765625Y-259103125D03*
D13*
X87415625Y-244815625D03*
D14*
X74715625Y-244815625D03*
D13*
X125515625Y-349590625D03*
D14*
X112815625Y-349590625D03*
D13*
X144565625Y-340065625D03*
D14*
X131865625Y-340065625D03*
D13*
X144565625Y-316253125D03*
D14*
X131865625Y-316253125D03*
D13*
X125515625Y-249578125D03*
D14*
X112815625Y-249578125D03*
D13*
X106465625Y-240053125D03*
D14*
X93765625Y-240053125D03*
D13*
X144565625Y-235290625D03*
D14*
X131865625Y-235290625D03*
D13*
X68365625Y-197190625D03*
D14*
X55665625Y-197190625D03*
D13*
X68365625Y-178140625D03*
D14*
X55665625Y-178140625D03*
D13*
X68365625Y-159090625D03*
D14*
X55665625Y-159090625D03*
D13*
X70746875Y-120990625D03*
D14*
X70746875Y-108290625D03*
D13*
X87415625Y-187665625D03*
D14*
X74715625Y-187665625D03*
D13*
X87415625Y-168615625D03*
D14*
X74715625Y-168615625D03*
D13*
X87415625Y-149565625D03*
D14*
X74715625Y-149565625D03*
D13*
X87415625Y-130515625D03*
D14*
X74715625Y-130515625D03*
D13*
X89934375Y-133421875D03*
D14*
X89934375Y-120721875D03*
D13*
X68365625Y-235290625D03*
D14*
X55665625Y-235290625D03*
D13*
X87415625Y-206715625D03*
D14*
X74715625Y-206715625D03*
D13*
X106465625Y-182903125D03*
D14*
X93765625Y-182903125D03*
D13*
X106465625Y-163853125D03*
D14*
X93765625Y-163853125D03*
D13*
X106465625Y-144803125D03*
D14*
X93765625Y-144803125D03*
D13*
X106465625Y-120990625D03*
D14*
X93765625Y-120990625D03*
D13*
X87415625Y-225765625D03*
D14*
X74715625Y-225765625D03*
D13*
X106465625Y-201953125D03*
D14*
X93765625Y-201953125D03*
D13*
X125515625Y-173378125D03*
D14*
X112815625Y-173378125D03*
D13*
X125515625Y-154328125D03*
D14*
X112815625Y-154328125D03*
D13*
X125515625Y-130515625D03*
D14*
X112815625Y-130515625D03*
D13*
X125515625Y-125753125D03*
D14*
X112815625Y-125753125D03*
D13*
X106465625Y-221003125D03*
D14*
X93765625Y-221003125D03*
D13*
X125515625Y-230528125D03*
D14*
X112815625Y-230528125D03*
D13*
X125515625Y-211478125D03*
D14*
X112815625Y-211478125D03*
D13*
X125515625Y-192428125D03*
D14*
X112815625Y-192428125D03*
D13*
X144565625Y-173378125D03*
D14*
X131865625Y-173378125D03*
D13*
X129087500Y-167425000D03*
D14*
X129087500Y-154725000D03*
D13*
X68365625Y-140040625D03*
D14*
X55665625Y-140040625D03*
D13*
X68365625Y-120990625D03*
D14*
X55665625Y-120990625D03*
D13*
X68365625Y-216240625D03*
D14*
X55665625Y-216240625D03*
D11*
X76271875Y-371140625D03*
X75771875Y-366140625D03*
D13*
X70746875Y-355543750D03*
D14*
X70746875Y-365703750D03*
D11*
X76271875Y-118728125D03*
X75771875Y-113728125D03*
X114371875Y-361615625D03*
X113871875Y-356615625D03*
X95321875Y-133015625D03*
X94821875Y-128015625D03*
X133421875Y-161590625D03*
X132921875Y-156590625D03*
X133421875Y-185403125D03*
X132921875Y-180403125D03*
X114371875Y-118728125D03*
X113871875Y-113728125D03*
X114371875Y-142540625D03*
X113871875Y-137540625D03*
X133421875Y-256840625D03*
X132921875Y-251840625D03*
D15*
X118371875Y-371021875D03*
X80271875Y-104321875D03*
X137421875Y-197190625D03*
X137421875Y-311490625D03*
X70746875Y-306728125D03*
X89796875Y-213859375D03*
D16*
X72700000Y-321800000D03*
X131578125Y-168043750D03*
X108978125Y-142543750D03*
X104378125Y-142543750D03*
X129578125Y-163343750D03*
X54300000Y-343400000D03*
X109978125Y-304343750D03*
X87534375Y-332021875D03*
X92178125Y-332043750D03*
X96678125Y-315643750D03*
X91078125Y-311443750D03*
X84200000Y-321100000D03*
X111778125Y-300143750D03*
X89334375Y-334821875D03*
X62821875Y-311421875D03*
X63000000Y-330200000D03*
X79734375Y-283021875D03*
X88934375Y-286421875D03*
X73178125Y-330343750D03*
X109378125Y-236043750D03*
X111200000Y-191200000D03*
X111200000Y-204400000D03*
X89300000Y-326100000D03*
X122278125Y-230243750D03*
X119134375Y-211421875D03*
X69800000Y-156800000D03*
X65600000Y-158500000D03*
X89700000Y-324400000D03*
X110037500Y-188856250D03*
X60000000Y-349100000D03*
X56700000Y-328600000D03*
X53500000Y-348000000D03*
X76878125Y-342821875D03*
X83700000Y-339900000D03*
X68878125Y-353743750D03*
X72978125Y-354943750D03*
X60656250Y-335221875D03*
X71578125Y-347343750D03*
X61778125Y-319343750D03*
X69678125Y-318243750D03*
X68734375Y-332221875D03*
X69534375Y-326021875D03*
X67900000Y-331300000D03*
X69678125Y-352343750D03*
X69578125Y-314543750D03*
X68578125Y-323743750D03*
X87278125Y-343043750D03*
X87478125Y-339143750D03*
X87278125Y-344443750D03*
X73078125Y-361043750D03*
X79734375Y-359021875D03*
X88600000Y-204500000D03*
X67200000Y-330200000D03*
X65378125Y-235343750D03*
X91278125Y-189943750D03*
X65800000Y-330200000D03*
X72378125Y-206943750D03*
X88606250Y-190046875D03*
X64400000Y-330200000D03*
X85400000Y-331000000D03*
X89700000Y-322800000D03*
D17*
X72600000Y-319600000D02*
X72734375Y-319600000D01*
X72734375Y-319734375D02*
X72600000Y-319600000D01*
X72734375Y-321765625D02*
X72734375Y-319734375D01*
X72700000Y-321800000D02*
X72734375Y-321765625D01*
X129578125Y-163343750D02*
X129578125Y-163443750D01*
X129578125Y-163443750D02*
X130878125Y-164743750D01*
X130878125Y-167343750D02*
X131578125Y-168043750D01*
X130878125Y-164743750D02*
X130878125Y-167343750D01*
X108978125Y-142543750D02*
X104378125Y-142543750D01*
X72734375Y-315843750D02*
X72734375Y-314487500D01*
X72734375Y-315843750D02*
X72734375Y-319600000D01*
X81534375Y-150021875D02*
X81534375Y-175621875D01*
X81534375Y-175621875D02*
X89878125Y-183965625D01*
X89878125Y-183965625D02*
X89878125Y-192143750D01*
X76271875Y-142540625D02*
X76271875Y-144759375D01*
X76271875Y-144759375D02*
X81534375Y-150021875D01*
X72734375Y-314487500D02*
X73878125Y-313343750D01*
X73878125Y-313343750D02*
X73878125Y-303943750D01*
X73878125Y-303943750D02*
X66678125Y-296743750D01*
X66678125Y-296743750D02*
X66678125Y-214543750D01*
X66678125Y-214543750D02*
X72578125Y-208643750D01*
X72578125Y-208643750D02*
X75578125Y-208643750D01*
X75578125Y-208643750D02*
X76678125Y-207543750D01*
X76678125Y-207543750D02*
X76678125Y-206243750D01*
X76678125Y-206243750D02*
X89878125Y-193043750D01*
X89878125Y-193043750D02*
X89878125Y-192143750D01*
X54300000Y-343400000D02*
X54300000Y-343500000D01*
X55443750Y-344643750D02*
X58712500Y-344643750D01*
X54300000Y-343500000D02*
X55443750Y-344643750D01*
X92178125Y-333778125D02*
X92178125Y-333343750D01*
X92178125Y-333343750D02*
X92178125Y-332043750D01*
X58712500Y-344643750D02*
X61334375Y-342021875D01*
X61334375Y-342021875D02*
X65934375Y-342021875D01*
X65934375Y-342021875D02*
X70612500Y-337343750D01*
X70612500Y-337343750D02*
X88612500Y-337343750D01*
X88612500Y-337343750D02*
X92178125Y-333778125D01*
X87534375Y-332021875D02*
X92156250Y-332021875D01*
X92156250Y-332021875D02*
X92178125Y-332043750D01*
X109978125Y-304343750D02*
X107978125Y-306343750D01*
X98678125Y-315643750D02*
X96678125Y-315643750D01*
X107978125Y-306343750D02*
X98678125Y-315643750D01*
D18*
X76334375Y-333103125D02*
X76271875Y-333040625D01*
D17*
X84200000Y-321100000D02*
X84200000Y-318321875D01*
X84200000Y-318321875D02*
X91078125Y-311443750D01*
X84167188Y-331932813D02*
X84167188Y-321132812D01*
X84167188Y-321132812D02*
X84200000Y-321100000D01*
X91078125Y-311443750D02*
X96878125Y-311443750D01*
X96878125Y-311443750D02*
X108178125Y-300143750D01*
X111778125Y-300143750D02*
X108378125Y-300143750D01*
X108378125Y-300143750D02*
X108178125Y-300143750D01*
X89334375Y-334821875D02*
X87056250Y-334821875D01*
X87056250Y-334821875D02*
X84167188Y-331932813D01*
D18*
X64400000Y-313000000D02*
X62821875Y-311421875D01*
X64400000Y-324400000D02*
X64400000Y-313000000D01*
X65000000Y-325000000D02*
X64400000Y-324400000D01*
X65000000Y-328200000D02*
X65000000Y-325000000D01*
X63000000Y-330200000D02*
X65000000Y-328200000D01*
D17*
X79734375Y-283021875D02*
X84156250Y-283021875D01*
X84156250Y-283021875D02*
X86078125Y-284943750D01*
X86078125Y-284943750D02*
X87456250Y-284943750D01*
X87456250Y-284943750D02*
X88934375Y-286421875D01*
X95100000Y-307343750D02*
X94456250Y-307343750D01*
X91600000Y-310200000D02*
X90521875Y-310200000D01*
X94456250Y-307343750D02*
X91600000Y-310200000D01*
X73178125Y-330343750D02*
X73178125Y-327543750D01*
X73178125Y-327543750D02*
X73478125Y-327243750D01*
X113278125Y-239943750D02*
X109378125Y-236043750D01*
X113278125Y-239943750D02*
X114978125Y-239943750D01*
X114978125Y-239943750D02*
X116878125Y-241843750D01*
X116878125Y-241843750D02*
X116878125Y-297043750D01*
X116878125Y-297043750D02*
X116278125Y-297643750D01*
X116278125Y-297643750D02*
X113478125Y-297643750D01*
X113478125Y-297643750D02*
X112278125Y-298843750D01*
X112278125Y-298843750D02*
X107478125Y-298843750D01*
X107478125Y-298843750D02*
X98978125Y-307343750D01*
X98978125Y-307343750D02*
X95100000Y-307343750D01*
X90521875Y-310200000D02*
X73478125Y-327243750D01*
X111200000Y-195200000D02*
X111200000Y-191200000D01*
X111200000Y-195200000D02*
X111200000Y-204400000D01*
X92678125Y-322300000D02*
X92678125Y-323321875D01*
X89900000Y-326100000D02*
X89300000Y-326100000D01*
X92678125Y-323321875D02*
X89900000Y-326100000D01*
X92678125Y-321500000D02*
X92678125Y-322300000D01*
X122278125Y-300743750D02*
X114178125Y-308843750D01*
X114178125Y-308843750D02*
X109478125Y-308843750D01*
X92678125Y-321500000D02*
X92678125Y-320143750D01*
X92678125Y-320143750D02*
X93178125Y-319643750D01*
X93178125Y-319643750D02*
X95678125Y-319643750D01*
X95678125Y-319643750D02*
X96878125Y-318443750D01*
X96878125Y-318443750D02*
X99878125Y-318443750D01*
X99878125Y-318443750D02*
X109478125Y-308843750D01*
X122278125Y-230243750D02*
X122278125Y-300743750D01*
X119134375Y-211421875D02*
X120878125Y-213165625D01*
X120878125Y-213165625D02*
X126834375Y-213165625D01*
X111656250Y-188856250D02*
X110037500Y-188856250D01*
X127200000Y-204400000D02*
X111656250Y-188856250D01*
X127200000Y-212800000D02*
X127200000Y-204400000D01*
X126834375Y-213165625D02*
X127200000Y-212800000D01*
X67300000Y-156800000D02*
X69800000Y-156800000D01*
X65600000Y-158500000D02*
X67300000Y-156800000D01*
X96278125Y-317043750D02*
X99278125Y-317043750D01*
X116278125Y-304643750D02*
X120878125Y-300043750D01*
X111678125Y-304643750D02*
X116278125Y-304643750D01*
X99278125Y-317043750D02*
X111678125Y-304643750D01*
X92400000Y-317943750D02*
X95378125Y-317943750D01*
X120878125Y-300043750D02*
X120878125Y-216043750D01*
X95378125Y-317943750D02*
X96278125Y-317043750D01*
X91278125Y-321400000D02*
X91278125Y-318821875D01*
X120878125Y-216043750D02*
X120878125Y-213165625D01*
X92156250Y-317943750D02*
X91278125Y-318821875D01*
X92400000Y-317943750D02*
X92156250Y-317943750D01*
X91278125Y-321400000D02*
X91278125Y-322821875D01*
X91278125Y-322821875D02*
X89700000Y-324400000D01*
D18*
X56706250Y-351193750D02*
X57906250Y-351193750D01*
X57906250Y-351193750D02*
X60000000Y-349100000D01*
X56600000Y-327621875D02*
X56600000Y-327156250D01*
X56600000Y-327156250D02*
X57334375Y-326421875D01*
X56600000Y-328500000D02*
X56600000Y-327621875D01*
X56700000Y-328600000D02*
X56600000Y-328500000D01*
X54093750Y-348593750D02*
X54106250Y-348593750D01*
X53500000Y-348000000D02*
X54093750Y-348593750D01*
X83134375Y-342500000D02*
X77200000Y-342500000D01*
X77200000Y-342500000D02*
X76878125Y-342821875D01*
D17*
X83134375Y-340465625D02*
X83134375Y-342500000D01*
X83134375Y-342500000D02*
X83134375Y-342821875D01*
X83700000Y-339900000D02*
X83134375Y-340465625D01*
D18*
X68978125Y-353843750D02*
X68978125Y-357621875D01*
X68878125Y-353743750D02*
X68978125Y-353843750D01*
X73056250Y-355021875D02*
X73734375Y-355021875D01*
X72978125Y-354943750D02*
X73056250Y-355021875D01*
X56978125Y-334821875D02*
X60256250Y-334821875D01*
X60256250Y-334821875D02*
X60656250Y-335221875D01*
X72017188Y-348304688D02*
X72017188Y-347782813D01*
X72017188Y-347782813D02*
X71578125Y-347343750D01*
X59534375Y-321587500D02*
X59534375Y-324221875D01*
X61778125Y-319343750D02*
X59534375Y-321587500D01*
X69678125Y-318243750D02*
X70917188Y-319482813D01*
X70917188Y-319482813D02*
X70917188Y-321404687D01*
X70917188Y-321404687D02*
X70878125Y-321443750D01*
X70878125Y-321443750D02*
X70917188Y-321443750D01*
X70917188Y-319482813D02*
X70917188Y-321443750D01*
X70917188Y-321443750D02*
X70917188Y-321804688D01*
X72334375Y-324221875D02*
X72334375Y-323221875D01*
X72334375Y-324221875D02*
X72334375Y-324821875D01*
X72334375Y-324821875D02*
X71134375Y-326021875D01*
X71134375Y-326021875D02*
X69534375Y-326021875D01*
X72334375Y-323221875D02*
X70917188Y-321804688D01*
X83134375Y-342821875D02*
X83134375Y-350421875D01*
X83134375Y-350421875D02*
X78534375Y-355021875D01*
X78534375Y-355021875D02*
X73734375Y-355021875D01*
X73734375Y-352821875D02*
X73734375Y-350021875D01*
X73734375Y-350021875D02*
X72017188Y-348304688D01*
X65334375Y-354821875D02*
X65934375Y-354821875D01*
X60334375Y-354821875D02*
X56706250Y-351193750D01*
X56706250Y-351193750D02*
X54106250Y-348593750D01*
X65334375Y-354821875D02*
X60334375Y-354821875D01*
X68734375Y-357621875D02*
X68978125Y-357621875D01*
X67534375Y-356421875D02*
X68734375Y-357621875D01*
X65934375Y-354821875D02*
X67534375Y-356421875D01*
X73734375Y-356221875D02*
X73734375Y-355021875D01*
X72334375Y-357621875D02*
X73734375Y-356221875D01*
X68978125Y-357621875D02*
X72334375Y-357621875D01*
X73734375Y-355021875D02*
X73734375Y-352821875D01*
X54106250Y-348593750D02*
X52734375Y-347221875D01*
X54934375Y-334821875D02*
X54934375Y-328621875D01*
X56600000Y-327621875D02*
X55934375Y-327621875D01*
X54934375Y-328621875D02*
X55934375Y-327621875D01*
X52734375Y-341221875D02*
X52734375Y-341021875D01*
X52734375Y-347221875D02*
X52734375Y-341221875D01*
X52734375Y-341021875D02*
X54934375Y-338821875D01*
X54934375Y-338821875D02*
X54934375Y-334821875D01*
X54934375Y-334821875D02*
X56978125Y-334821875D01*
X59534375Y-324221875D02*
X57334375Y-326421875D01*
X69534375Y-326021875D02*
X69534375Y-331421875D01*
X69534375Y-331421875D02*
X68734375Y-332221875D01*
X67900000Y-331300000D02*
X67378125Y-331821875D01*
X67400000Y-331900000D02*
X67378125Y-331900000D01*
X67378125Y-331878125D02*
X67400000Y-331900000D01*
X67378125Y-331821875D02*
X67378125Y-331878125D01*
X68678125Y-351243750D02*
X69778125Y-352343750D01*
X67378125Y-331900000D02*
X67378125Y-335143750D01*
X67378125Y-335143750D02*
X62778125Y-339743750D01*
X62778125Y-339743750D02*
X55578125Y-339743750D01*
X55578125Y-339743750D02*
X53378125Y-341943750D01*
X53378125Y-341943750D02*
X53378125Y-344143750D01*
X53378125Y-344143750D02*
X54878125Y-345643750D01*
X54878125Y-345643750D02*
X63078125Y-345643750D01*
X63078125Y-345643750D02*
X68678125Y-351243750D01*
X69778125Y-352343750D02*
X69678125Y-352343750D01*
D17*
X69578125Y-314543750D02*
X67778125Y-316343750D01*
X67778125Y-316343750D02*
X67778125Y-322943750D01*
X67778125Y-322943750D02*
X68578125Y-323743750D01*
D18*
X68578125Y-323743750D02*
X67478125Y-322643750D01*
X67478125Y-322643750D02*
X67478125Y-322443750D01*
X67578125Y-322343750D02*
X67478125Y-322343750D01*
X67478125Y-322443750D02*
X67578125Y-322343750D01*
X67478125Y-322643750D02*
X67478125Y-322343750D01*
D17*
X91560938Y-342760937D02*
X87560938Y-342760937D01*
X87560938Y-342760937D02*
X87278125Y-343043750D01*
X106465625Y-335303125D02*
X99018750Y-335303125D01*
X99018750Y-335303125D02*
X91560938Y-342760937D01*
X122078125Y-329643750D02*
X102978125Y-329643750D01*
X102978125Y-329643750D02*
X93478125Y-339143750D01*
X93478125Y-339143750D02*
X87478125Y-339143750D01*
X125515625Y-326206250D02*
X122078125Y-329643750D01*
X125515625Y-325778125D02*
X125515625Y-326206250D01*
X125515625Y-349590625D02*
X119425000Y-349590625D01*
X119425000Y-349590625D02*
X114278125Y-344443750D01*
X114278125Y-344443750D02*
X87278125Y-344443750D01*
X77300000Y-359021875D02*
X79734375Y-359021875D01*
X73078125Y-361043750D02*
X75278125Y-361043750D01*
X75278125Y-361043750D02*
X77300000Y-359021875D01*
X91278125Y-193621875D02*
X91278125Y-193543750D01*
X88600000Y-196300000D02*
X91278125Y-193621875D01*
X88600000Y-204500000D02*
X88600000Y-196300000D01*
D18*
X66800000Y-310465625D02*
X66378125Y-310043750D01*
X66800000Y-323400000D02*
X66800000Y-310465625D01*
X67400000Y-324000000D02*
X66800000Y-323400000D01*
X67400000Y-330000000D02*
X67400000Y-324000000D01*
X67200000Y-330200000D02*
X67400000Y-330000000D01*
D17*
X65378125Y-309043750D02*
X65378125Y-247843750D01*
X66378125Y-310043750D02*
X65378125Y-309043750D01*
X65378125Y-235343750D02*
X65378125Y-247843750D01*
X91278125Y-193543750D02*
X91278125Y-189943750D01*
D18*
X66000000Y-311365625D02*
X65078125Y-310443750D01*
X66000000Y-323800000D02*
X66000000Y-311365625D01*
X66600000Y-324400000D02*
X66000000Y-323800000D01*
X66600000Y-329400000D02*
X66600000Y-324400000D01*
X65800000Y-330200000D02*
X66600000Y-329400000D01*
D17*
X72378125Y-206943750D02*
X72378125Y-205943750D01*
X76390625Y-204643750D02*
X78212500Y-202821875D01*
X73678125Y-204643750D02*
X76390625Y-204643750D01*
X72378125Y-205943750D02*
X73678125Y-204643750D01*
X63978125Y-235843750D02*
X63978125Y-234643750D01*
X63978125Y-309343750D02*
X63978125Y-235843750D01*
X65378125Y-213943750D02*
X72378125Y-206943750D01*
X65078125Y-310443750D02*
X63978125Y-309343750D01*
X63978125Y-234643750D02*
X65378125Y-233243750D01*
X65378125Y-233243750D02*
X65378125Y-213943750D01*
X78212500Y-202821875D02*
X88606250Y-192428125D01*
X88606250Y-192428125D02*
X88606250Y-190046875D01*
X68365625Y-197190625D02*
X68365625Y-209134375D01*
X68365625Y-209134375D02*
X64078125Y-213421875D01*
X62678125Y-234543750D02*
X62678125Y-309643750D01*
X62678125Y-233843750D02*
X64078125Y-232443750D01*
X64078125Y-232443750D02*
X64078125Y-213421875D01*
X62678125Y-234543750D02*
X62678125Y-233843750D01*
X62678125Y-309643750D02*
X63978125Y-310943750D01*
D18*
X64400000Y-330200000D02*
X65800000Y-328800000D01*
X65800000Y-328800000D02*
X65800000Y-324700000D01*
X65800000Y-324700000D02*
X65200000Y-324100000D01*
X65200000Y-324100000D02*
X65200000Y-312165625D01*
X65200000Y-312165625D02*
X63978125Y-310943750D01*
D17*
X85400000Y-331000000D02*
X85400000Y-319321875D01*
X85400000Y-319321875D02*
X91900000Y-312821875D01*
X106465625Y-201953125D02*
X106465625Y-204565625D01*
X97534375Y-312787500D02*
X108728125Y-301593750D01*
X97534375Y-312821875D02*
X97534375Y-312787500D01*
X118178125Y-214943750D02*
X118178125Y-298543750D01*
X118178125Y-298543750D02*
X115078125Y-301643750D01*
X115078125Y-301643750D02*
X108678125Y-301643750D01*
X108728125Y-301593750D02*
X108678125Y-301643750D01*
X91900000Y-312821875D02*
X97534375Y-312821875D01*
X106465625Y-204565625D02*
X111700000Y-209800000D01*
X111700000Y-209800000D02*
X113800000Y-209800000D01*
X113800000Y-209800000D02*
X118178125Y-214178125D01*
X118178125Y-214178125D02*
X118178125Y-214943750D01*
X125515625Y-154328125D02*
X125828125Y-154328125D01*
X125515625Y-211478125D02*
X121178125Y-211478125D01*
X93178125Y-314221875D02*
X89700000Y-317700000D01*
X89700000Y-317700000D02*
X89700000Y-322800000D01*
X94400000Y-314221875D02*
X93178125Y-314221875D01*
X94400000Y-314221875D02*
X94900000Y-314221875D01*
X94900000Y-314221875D02*
X98134375Y-314221875D01*
X98134375Y-314221875D02*
X109312500Y-303043750D01*
X109312500Y-303043750D02*
X109478125Y-303043750D01*
X115678125Y-303043750D02*
X119478125Y-299243750D01*
X119478125Y-299243750D02*
X119478125Y-220043750D01*
X109478125Y-303043750D02*
X115678125Y-303043750D01*
X119478125Y-220043750D02*
X119478125Y-218643750D01*
X117600000Y-211665625D02*
X119478125Y-213543750D01*
X119478125Y-213543750D02*
X119478125Y-218643750D01*
X121178125Y-211478125D02*
X119800000Y-210100000D01*
X119800000Y-210100000D02*
X118600000Y-210100000D01*
X118600000Y-210100000D02*
X117600000Y-211100000D01*
X117600000Y-211100000D02*
X117600000Y-211665625D01*
M02*
