M48
;DRILL file {KiCad 4.0.7-e2-6376~58~ubuntu16.04.1} date Mon Mar 19 21:10:57 2018
;FORMAT={-:-/ absolute / metric / decimal}
FMAT,2
METRIC,TZ
T1C0.500
T2C0.600
T3C1.000
T4C1.300
T5C1.499
T6C3.000
%
G90
G05
M71
T1
X21.196Y-146.282
X21.196Y-147.882
X22.396Y-145.482
X22.396Y-147.082
X22.396Y-148.682
T2
X49.296Y-137.682
X50.896Y-137.682
X52.696Y-137.682
X61.896Y-130.282
X80.496Y-132.882
X80.696Y-136.482
X107.396Y-138.482
T3
X27.996Y-32.682
X28.196Y-166.082
X28.196Y-242.282
X28.236Y-128.082
X28.236Y-204.282
X28.236Y-185.082
X28.236Y-223.252
X28.236Y-261.282
X28.29Y-51.802
X28.29Y-70.852
X28.29Y-108.952
X28.29Y-89.902
X33.076Y-32.682
X33.276Y-166.082
X35.796Y-166.082
X38.356Y-242.282
X38.396Y-128.082
X38.396Y-204.282
X38.396Y-185.082
X38.396Y-223.252
X38.396Y-261.282
X38.45Y-51.802
X38.45Y-70.852
X38.45Y-108.952
X38.45Y-89.902
X40.876Y-166.082
X41.396Y-27.882
X41.396Y-32.962
X47.14Y-61.327
X47.14Y-80.377
X47.14Y-99.427
X47.14Y-118.477
X47.161Y-37.082
X47.161Y-42.307
X47.196Y-270.877
X47.34Y-175.627
X47.34Y-194.677
X47.34Y-213.727
X47.34Y-232.777
X47.396Y-251.882
X57.3Y-61.327
X57.3Y-80.377
X57.3Y-99.427
X57.3Y-118.477
X57.321Y-37.082
X57.321Y-42.307
X57.356Y-270.877
X57.5Y-175.627
X57.5Y-194.677
X57.5Y-213.727
X57.5Y-232.777
X57.556Y-251.882
X60.496Y-140.097
X60.496Y-150.257
X60.496Y-157.877
X60.496Y-168.037
X65.796Y-33.082
X66.196Y-189.914
X66.236Y-51.882
X66.236Y-56.282
X66.296Y-113.732
X66.296Y-132.682
X66.296Y-151.832
X66.396Y-94.682
X66.396Y-208.964
X66.396Y-227.882
X66.396Y-247.082
X66.396Y-266.082
X66.436Y-75.682
X66.446Y-170.732
X75.956Y-33.082
X76.356Y-189.914
X76.396Y-51.882
X76.396Y-56.282
X76.456Y-113.732
X76.456Y-132.682
X76.456Y-151.832
X76.556Y-94.682
X76.556Y-208.964
X76.556Y-227.882
X76.556Y-247.082
X76.556Y-266.082
X76.596Y-75.682
X76.606Y-170.732
X85.236Y-261.482
X85.396Y-42.082
X85.44Y-218.289
X85.44Y-103.989
X85.44Y-123.039
X85.44Y-142.089
X85.44Y-161.139
X85.44Y-199.239
X85.44Y-237.339
X85.44Y-65.889
X85.44Y-85.082
X85.44Y-180.189
X95.396Y-261.482
X95.556Y-42.082
X95.6Y-218.289
X95.6Y-103.989
X95.6Y-123.039
X95.6Y-142.089
X95.6Y-161.139
X95.6Y-199.239
X95.6Y-237.339
X95.6Y-65.889
X95.6Y-85.082
X95.6Y-180.189
X99.396Y-85.082
X99.396Y-95.242
X99.396Y-224.922
X99.396Y-235.082
X99.396Y-248.682
X99.396Y-258.842
X99.596Y-68.282
X99.596Y-78.442
X100.582Y-150.624
X100.582Y-160.784
T4
X16.746Y-143.432
X16.746Y-150.732
X21.496Y-143.432
X21.496Y-150.732
T5
X28.216Y-77.877
X28.216Y-58.827
X28.216Y-96.927
X28.216Y-115.977
X28.216Y-173.127
X28.216Y-192.177
X28.216Y-211.227
X28.216Y-268.377
X28.216Y-20.727
X28.216Y-39.777
X28.216Y-135.027
X28.216Y-154.077
X28.216Y-230.277
X28.216Y-249.327
X28.716Y-82.877
X28.716Y-63.827
X28.716Y-101.927
X28.716Y-120.977
X28.716Y-178.127
X28.716Y-197.177
X28.716Y-216.227
X28.716Y-273.377
X28.716Y-25.727
X28.716Y-44.777
X28.716Y-140.027
X28.716Y-159.077
X28.716Y-235.277
X28.716Y-254.327
X47.266Y-25.489
X47.266Y-49.302
X47.266Y-68.352
X47.266Y-87.402
X47.266Y-106.452
X47.266Y-182.652
X47.266Y-201.702
X47.266Y-220.752
X47.266Y-239.802
X47.266Y-258.852
X47.266Y-277.902
X47.766Y-30.489
X47.766Y-54.302
X47.766Y-73.352
X47.766Y-92.402
X47.766Y-111.452
X47.766Y-187.652
X47.766Y-206.702
X47.766Y-225.752
X47.766Y-244.802
X47.766Y-263.852
X47.766Y-282.902
X55.766Y-125.502
X55.766Y-144.552
X55.766Y-163.602
X56.266Y-130.502
X56.266Y-149.552
X56.266Y-168.602
X66.316Y-82.639
X66.316Y-120.739
X66.316Y-139.789
X66.316Y-215.989
X66.316Y-235.039
X66.316Y-63.589
X66.316Y-101.689
X66.316Y-158.839
X66.316Y-177.889
X66.316Y-196.939
X66.316Y-254.089
X66.316Y-273.139
X66.816Y-87.639
X66.816Y-125.739
X66.816Y-144.789
X66.816Y-220.989
X66.816Y-240.039
X66.816Y-68.589
X66.816Y-106.689
X66.816Y-163.839
X66.816Y-182.889
X66.816Y-201.939
X66.816Y-259.089
X66.816Y-278.139
X74.816Y-39.777
X75.316Y-44.777
X85.366Y-25.489
X85.366Y-49.302
X85.366Y-73.114
X85.366Y-92.164
X85.366Y-111.214
X85.366Y-130.264
X85.366Y-149.314
X85.366Y-168.364
X85.366Y-187.414
X85.366Y-206.464
X85.366Y-225.514
X85.366Y-244.564
X85.366Y-268.377
X85.866Y-30.489
X85.866Y-54.302
X85.866Y-78.114
X85.866Y-97.164
X85.866Y-116.214
X85.866Y-135.264
X85.866Y-154.314
X85.866Y-173.364
X85.866Y-192.414
X85.866Y-211.464
X85.866Y-230.514
X85.866Y-249.564
X85.866Y-273.377
X104.416Y-68.352
X104.416Y-92.164
X104.416Y-163.602
X104.416Y-235.039
X104.416Y-258.852
X104.916Y-73.352
X104.916Y-97.164
X104.916Y-168.602
X104.916Y-240.039
X104.916Y-263.852
T6
X42.241Y-213.727
X51.766Y-16.083
X61.291Y-125.621
X89.866Y-282.783
X108.916Y-108.952
X108.916Y-223.252
T0
M30
