M48
;DRILL file {KiCad 4.0.6-e0-6349~53~ubuntu16.04.1} date Tue Mar 28 17:43:11 2017
;FORMAT={-:-/ absolute / metric / decimal}
FMAT,2
METRIC,TZ
T1C3.988
%
G90
G05
M71
T1
X39.817Y-71.121
X39.817Y-90.171
X39.817Y-109.221
X39.817Y-166.371
X39.817Y-185.421
X39.817Y-204.471
X39.817Y-223.521
X39.817Y-280.671
X39.817Y-299.721
X39.817Y-33.021
X39.817Y-52.071
X39.817Y-128.271
X39.817Y-147.321
X39.817Y-242.571
X39.817Y-261.621
X58.867Y-80.646
X58.867Y-99.696
X58.867Y-194.946
X58.867Y-294.959
X58.867Y-37.784
X58.867Y-61.596
X58.867Y-118.746
X58.867Y-156.846
X58.867Y-175.896
X58.867Y-213.996
X58.867Y-233.046
X58.867Y-252.096
X58.867Y-271.146
X58.867Y-137.796
X77.917Y-44.928
X77.917Y-75.884
X77.917Y-113.984
X77.917Y-133.034
X77.917Y-152.084
X77.917Y-171.134
X77.917Y-190.184
X77.917Y-209.234
X77.917Y-228.284
X77.917Y-247.334
X77.917Y-266.384
X77.917Y-94.934
X77.917Y-292.578
X96.967Y-33.021
X96.967Y-59.215
X96.967Y-123.509
X96.967Y-142.559
X96.967Y-161.609
X96.967Y-237.809
X96.967Y-256.859
X96.967Y-85.409
X96.967Y-104.459
X96.967Y-180.659
X96.967Y-199.709
X96.967Y-218.759
X96.967Y-287.815
X116.017Y-80.646
X116.017Y-104.459
X116.017Y-166.371
X116.017Y-247.375
X116.017Y-271.187
T0
M30
